<svg width="2641" height="1174" xmlns="http://www.w3.org/2000/svg" xmlns:xlink="http://www.w3.org/1999/xlink" xml:space="preserve" overflow="hidden"><defs><clipPath id="clip0"><rect x="694" y="728" width="2641" height="1174"/></clipPath></defs><g clip-path="url(#clip0)" transform="translate(-694 -728)"><rect x="694" y="728" width="2641" height="1174" fill="#EDEFF3"/><path d="M1745.68 917.053C1600.63 921.605 1628.58 1082.5 1616.2 1153.2 1601.28 1238.74 1460.95 1194.34 1342.49 1240.92 1203.03 1295.75 1339.9 1391.4 1402.57 1445.11 1508.07 1535.49 1446.56 1604.57 1515.77 1697.61 1587.86 1794.56 1785.39 1854.22 1914.7 1785.08 2023.65 1726.85 2004.64 1628.64 2235.09 1534.09 2420.07 1458.21 2691.01 1411.7 2753.91 1236.97 2805.01 1095.03 2693.89 896.481 2425.26 980.785 2337.77 1008.24 2254.66 1063.32 2159.47 1074.28 1922.45 1101.58 1862.36 913.396 1745.68 917.053Z" fill="#FFFFFF" fill-rule="evenodd" fill-opacity="0.4"/><path d="M2358.19 908.717C2342.67 874.798 2279.77 897.958 2282.06 929.721 2284.39 961.486 2373.7 942.612 2358.19 908.717Z" fill="#FFFFFF" fill-rule="evenodd" fill-opacity="0.4"/><path d="M2436.68 826.071C2425.34 801.577 2379.37 818.304 2381.04 841.246 2382.75 864.184 2448.01 850.55 2436.68 826.071Z" fill="#FFFFFF" fill-rule="evenodd" fill-opacity="0.4"/><path d="M2508.35 1520.17C2494.22 1489.39 2436.97 1510.4 2439.06 1539.23 2441.17 1568.05 2522.48 1550.93 2508.35 1520.17Z" fill="#FFFFFF" fill-rule="evenodd" fill-opacity="0.4"/><path d="M1122.5 1729.5C1295.44 1727.31 1466.69 1726.59 1589.55 1663.29 1712.42 1599.99 1859.71 1349.68 1859.71 1349.68 1947.86 1213.2 1984.21 1118.19 2109.54 1056.68 2234.86 995.18 2418.18 992.34 2601.5 989.5" stroke="#CDD8E9" stroke-width="22.9167" stroke-linecap="round" stroke-linejoin="round" stroke-miterlimit="10" fill="none" fill-rule="evenodd"/><path d="M0 0 1721.6 0.000360892" stroke="#C8CCDA" stroke-width="22.9167" stroke-linecap="round" stroke-linejoin="round" stroke-miterlimit="10" stroke-dasharray="0 45.8333" fill="none" fill-rule="evenodd" transform="matrix(-1 0 0 1 2851.1 1314.5)"/><path d="M1114.5 1752.5 2906.36 1752.5" stroke="#C8CCDA" stroke-width="22.9167" stroke-linecap="round" stroke-linejoin="round" stroke-miterlimit="10" fill="none" fill-rule="evenodd"/><path d="M1114.5 878.5 1114.5 1751.69" stroke="#C8CCDA" stroke-width="22.9167" stroke-linecap="round" stroke-linejoin="round" stroke-miterlimit="10" fill="none" fill-rule="evenodd"/><path d="M1553.5 1037.5C1553.5 1021.48 1566.48 1008.5 1582.5 1008.5L1698.5 1008.5C1714.52 1008.5 1727.5 1021.48 1727.5 1037.5L1727.5 1153.5C1727.5 1169.52 1714.52 1182.5 1698.5 1182.5L1582.5 1182.5C1566.48 1182.5 1553.5 1169.52 1553.5 1153.5Z" stroke="#ABC0DD" stroke-width="22.9167" stroke-miterlimit="8" fill="#FFFFFF" fill-rule="evenodd"/><g><g><g><path d="M104.037 19.0916 42.1708 77.5749 12.4458 47.1249 2.175 56.9124 41.6874 97.5124 52.0791 87.8457 113.825 29.2416Z" fill="#6C89B3" transform="matrix(1 0 0 1 1582 1037)"/></g></g></g><path d="M2025.5 1475.5C2025.5 1459.48 2038.48 1446.5 2054.5 1446.5L2170.5 1446.5C2186.52 1446.5 2199.5 1459.48 2199.5 1475.5L2199.5 1591.5C2199.5 1607.52 2186.52 1620.5 2170.5 1620.5L2054.5 1620.5C2038.48 1620.5 2025.5 1607.52 2025.5 1591.5Z" stroke="#ABC0DD" stroke-width="22.9167" stroke-miterlimit="8" fill="#FFFFFF" fill-rule="evenodd"/><g><g><g><path d="M100.775 25.4958 90.504 15.225 57.9999 47.7291 25.4958 15.225 15.225 25.4958 47.7291 57.9999 15.225 90.504 25.4958 100.775 57.9999 68.2707 90.504 100.775 100.775 90.504 68.2707 57.9999Z" fill="#6C89B3" transform="matrix(1 0 0 1 2054 1475)"/></g></g></g><path d="M2209 1004 2242 971 2275 1004 2242 1037Z" stroke="#6C89B3" stroke-width="18.3333" stroke-miterlimit="8" fill="#BECEE4" fill-rule="evenodd"/><path d="M2347 1004 2380 971 2413 1004 2380 1037Z" stroke="#6C89B3" stroke-width="18.3333" stroke-miterlimit="8" fill="#BECEE4" fill-rule="evenodd"/><path d="M2592 1004 2625 971 2658 1004 2625 1037Z" stroke="#6C89B3" stroke-width="18.3333" stroke-miterlimit="8" fill="#BECEE4" fill-rule="evenodd"/><path d="M1467 1683C1467 1664.77 1481.77 1650 1500 1650 1518.23 1650 1533 1664.77 1533 1683 1533 1701.23 1518.23 1716 1500 1716 1481.77 1716 1467 1701.23 1467 1683Z" stroke="#6C89B3" stroke-width="18.3333" stroke-miterlimit="8" fill="#BECEE4" fill-rule="evenodd"/><path d="M1277 1683C1277 1664.77 1291.77 1650 1310 1650 1328.23 1650 1343 1664.77 1343 1683 1343 1701.23 1328.23 1716 1310 1716 1291.77 1716 1277 1701.23 1277 1683Z" stroke="#6C89B3" stroke-width="18.3333" stroke-miterlimit="8" fill="#BECEE4" fill-rule="evenodd"/><path d="M1205 1683C1205 1664.77 1219.77 1650 1238 1650 1256.23 1650 1271 1664.77 1271 1683 1271 1701.23 1256.23 1716 1238 1716 1219.77 1716 1205 1701.23 1205 1683Z" stroke="#6C89B3" stroke-width="18.3333" stroke-miterlimit="8" fill="#BECEE4" fill-rule="evenodd"/><path d="M1391 1683C1391 1664.77 1405.77 1650 1424 1650 1442.23 1650 1457 1664.77 1457 1683 1457 1701.23 1442.23 1716 1424 1716 1405.77 1716 1391 1701.23 1391 1683Z" stroke="#6C89B3" stroke-width="18.3333" stroke-miterlimit="8" fill="#BECEE4" fill-rule="evenodd"/><path d="M1588 1683C1588 1664.77 1602.77 1650 1621 1650 1639.23 1650 1654 1664.77 1654 1683 1654 1701.23 1639.23 1716 1621 1716 1602.77 1716 1588 1701.23 1588 1683Z" stroke="#6C89B3" stroke-width="18.3333" stroke-miterlimit="8" fill="#BECEE4" fill-rule="evenodd"/><path d="M1136 1683C1136 1664.77 1150.77 1650 1169 1650 1187.23 1650 1202 1664.77 1202 1683 1202 1701.23 1187.23 1716 1169 1716 1150.77 1716 1136 1701.23 1136 1683Z" stroke="#6C89B3" stroke-width="18.3333" stroke-miterlimit="8" fill="#BECEE4" fill-rule="evenodd"/><path d="M2486 1004 2519 971 2552 1004 2519 1037Z" stroke="#6C89B3" stroke-width="18.3333" stroke-miterlimit="8" fill="#BECEE4" fill-rule="evenodd"/><path d="M2657 1004 2690 971 2723 1004 2690 1037Z" stroke="#6C89B3" stroke-width="18.3333" stroke-miterlimit="8" fill="#BECEE4" fill-rule="evenodd"/><path d="M2720 1004 2753 971 2786 1004 2753 1037Z" stroke="#6C89B3" stroke-width="18.3333" stroke-miterlimit="8" fill="#BECEE4" fill-rule="evenodd"/><path d="M2415 1004 2448 971 2481 1004 2448 1037Z" stroke="#6C89B3" stroke-width="18.3333" stroke-miterlimit="8" fill="#BECEE4" fill-rule="evenodd"/></g></svg>