<svg width="2641" height="1174" xmlns="http://www.w3.org/2000/svg" xmlns:xlink="http://www.w3.org/1999/xlink" xml:space="preserve" overflow="hidden"><defs><clipPath id="clip0"><rect x="694" y="728" width="2641" height="1174"/></clipPath></defs><g clip-path="url(#clip0)" transform="translate(-694 -728)"><rect x="694" y="728" width="2641" height="1174" fill="#EDEFF3"/><path d="M1745.68 917.053C1600.63 921.605 1628.58 1082.5 1616.2 1153.2 1601.28 1238.74 1460.95 1194.34 1342.49 1240.92 1203.03 1295.75 1339.9 1391.4 1402.57 1445.11 1508.07 1535.49 1446.56 1604.57 1515.77 1697.61 1587.86 1794.56 1785.39 1854.22 1914.7 1785.08 2023.65 1726.85 2004.64 1628.64 2235.09 1534.09 2420.07 1458.21 2691.01 1411.7 2753.91 1236.97 2805.01 1095.03 2693.89 896.481 2425.26 980.785 2337.77 1008.24 2254.66 1063.32 2159.47 1074.28 1922.45 1101.58 1862.36 913.396 1745.68 917.053Z" fill="#F8F8FC" fill-rule="evenodd" fill-opacity="0.4"/><path d="M2358.19 908.717C2342.67 874.798 2279.77 897.958 2282.06 929.721 2284.39 961.486 2373.7 942.612 2358.19 908.717Z" fill="#F8F8FC" fill-rule="evenodd" fill-opacity="0.4"/><path d="M2436.68 826.071C2425.34 801.577 2379.37 818.304 2381.04 841.246 2382.75 864.184 2448.01 850.55 2436.68 826.071Z" fill="#F8F8FC" fill-rule="evenodd" fill-opacity="0.4"/><path d="M2508.35 1520.17C2494.22 1489.39 2436.97 1510.4 2439.06 1539.23 2441.17 1568.05 2522.48 1550.93 2508.35 1520.17Z" fill="#F8F8FC" fill-rule="evenodd" fill-opacity="0.4"/><path d="M909 1038 989.156 1038" stroke="#6C89B3" stroke-width="32.0833" stroke-linecap="round" stroke-linejoin="round" stroke-miterlimit="10" fill="none" fill-rule="evenodd"/><path d="M909 1251 989.156 1251" stroke="#6C89B3" stroke-width="32.0833" stroke-linecap="round" stroke-linejoin="round" stroke-miterlimit="10" fill="none" fill-rule="evenodd"/><path d="M909 1464 989.156 1464" stroke="#6C89B3" stroke-width="32.0833" stroke-linecap="round" stroke-linejoin="round" stroke-miterlimit="10" fill="none" fill-rule="evenodd"/><rect x="1108" y="1211" width="173" height="468" fill="#BECEE4" fill-opacity="0.698039"/><rect x="1349" y="1415" width="172" height="264" fill="#BECEE4" fill-opacity="0.698039"/><rect x="1589" y="1043" width="173" height="636" fill="#BECEE4" fill-opacity="0.698039"/><path d="M1075.07 1670.94 1075.07 943 1053 943 1053 1693 1803 1693 1803 1670.94 1075.07 1670.94Z" fill="#C8CCDA" fill-rule="evenodd"/><path d="M909 1676 989.156 1676" stroke="#6C89B3" stroke-width="32.0833" stroke-linecap="round" stroke-linejoin="round" stroke-miterlimit="10" fill="none" fill-rule="evenodd"/><rect x="0" y="0" width="173" height="468" fill="#BECEE4" fill-opacity="0.698039" transform="matrix(-1 0 0 1 2907 1211)"/><rect x="0" y="0" width="173" height="264" fill="#BECEE4" fill-opacity="0.698039" transform="matrix(-1 0 0 1 2667 1415)"/><rect x="0" y="0" width="173" height="636" fill="#BECEE4" fill-opacity="0.698039" transform="matrix(-1 0 0 1 2427 1043)"/><path d="M22.0686 727.941 22.0686 0 0 0 0 750 750 750 750 727.941 22.0686 727.941Z" fill="#C8CCDA" fill-rule="evenodd" transform="matrix(-1 0 0 1 2963 943)"/><text fill="#6C89B3" font-family="Berlin Sans FB Demi,Berlin Sans FB Demi_MSFontService,sans-serif" font-weight="600" font-size="128" transform="matrix(1 0 0 1 3023.53 1709)">0</text><text fill="#6C89B3" font-family="Berlin Sans FB Demi,Berlin Sans FB Demi_MSFontService,sans-serif" font-weight="600" font-size="128" transform="matrix(1 0 0 1 3041.13 1087)">1</text><path d="M1861 1251.79 1979.25 1251.79 1979.25 1148 2168 1314.5 1979.25 1481 1979.25 1377.21 1861 1377.21Z" fill="#C8CCDA" fill-rule="evenodd"/></g></svg>