<svg width="2641" height="1174" xmlns="http://www.w3.org/2000/svg" xmlns:xlink="http://www.w3.org/1999/xlink" xml:space="preserve" overflow="hidden"><defs><clipPath id="clip0"><rect x="694" y="728" width="2641" height="1174"/></clipPath></defs><g clip-path="url(#clip0)" transform="translate(-694 -728)"><rect x="694" y="728" width="2641" height="1174" fill="#EDEFF3"/><path d="M2238.66 885.591C2177.55 923.465 2131.18 1111.58 1857.32 1098.01 1798.14 1095.09 1740.36 1081.55 1681.46 1076.5 1583.79 1068.07 1521.17 1125.85 1506.86 1194.74 1492.01 1266.45 1535.5 1391.4 1624.94 1429.22 1704.56 1462.85 1731.4 1454.26 1727.4 1616.79 1724.61 1729.7 1769.13 1818.12 1885.08 1796.82 1968.03 1781.57 2019.45 1728.13 2049.43 1649 2076.79 1576.76 2084.58 1494.49 2124.13 1427.29 2191 1313.64 2332.44 1302.9 2441.11 1250.87 2494.21 1225.44 2538.13 1186.58 2551.35 1127.21 2600.49 906.817 2365.36 807.069 2238.66 885.591Z" fill="#FFFFFF" fill-rule="evenodd" fill-opacity="0.4"/><path d="M2211.34 1402.53C2196.57 1430.89 2234.3 1441.2 2256.62 1431.37 2292.48 1415.54 2304.14 1391.6 2287.66 1377.82 2268.69 1361.92 2228.16 1370.32 2211.34 1402.53Z" fill="#FFFFFF" fill-rule="evenodd" fill-opacity="0.4"/><path d="M1938.92 1025.72C1923.86 1050.74 1955.61 1056.33 1975.65 1046.27 2007.89 1030.08 2019.88 1009.05 2006.78 998.794 1991.68 987.004 1956.05 997.328 1938.92 1025.72Z" fill="#FFFFFF" fill-rule="evenodd" fill-opacity="0.4"/><path d="M2009.68 909.04C2005.08 923.109 2025.1 932.543 2035.36 929.392 2051.85 924.323 2055.33 912.365 2045.66 903.155 2034.5 892.563 2014.95 893.096 2009.68 909.04Z" fill="#FFFFFF" fill-rule="evenodd" fill-opacity="0.4"/><path d="M1330.18 962C1335.71 960.367 1341.31 958.847 1347 957.442L1340.87 945C1334.82 946.497 1328.86 948.113 1323 949.848Z" fill="#6C89B3" fill-rule="evenodd"/><path d="M1289.85 977C1295.14 974.674 1300.52 972.46 1306 970.358L1297.14 958C1291.32 960.224 1285.61 962.572 1280 965.048Z" fill="#6C89B3" fill-rule="evenodd"/><path d="M1252.81 996C1257.42 993.217 1262.15 990.532 1267 987.943L1256.06 977C1250.93 979.746 1245.91 982.595 1241 985.545Z" fill="#6C89B3" fill-rule="evenodd"/><path d="M1416 932.963 1417.87 946C1423.87 945.564 1429.91 945.265 1436 945.103L1435.23 932C1428.78 932.203 1422.36 932.511 1416 932.963Z" fill="#6C89B3" fill-rule="evenodd"/><path d="M1508 949.13C1513.86 949.967 1519.67 950.93 1525.4 952L1530 939.037C1523.93 937.909 1517.78 936.897 1511.55 936Z" fill="#6C89B3" fill-rule="evenodd"/><path d="M1601.62 959 1593 970.653C1598.25 972.659 1603.41 974.775 1608.46 977L1618 965.737C1612.65 963.388 1607.2 961.143 1601.62 959Z" fill="#6C89B3" fill-rule="evenodd"/><path d="M1463 945.041C1469.07 945.237 1475.09 945.557 1481.07 946L1483 933.005C1476.68 932.548 1470.29 932.209 1463.88 932Z" fill="#6C89B3" fill-rule="evenodd"/><path d="M1557.46 945 1551 957.373C1556.91 958.799 1562.74 960.342 1568.48 962.001L1576 949.91C1569.91 948.151 1563.73 946.514 1557.46 945Z" fill="#6C89B3" fill-rule="evenodd"/><path d="M1657 985.597C1652.13 982.626 1647.13 979.759 1642 977L1631 987.883C1635.84 990.489 1640.55 993.195 1645.15 996Z" fill="#6C89B3" fill-rule="evenodd"/><path d="M1369 938.993 1373.54 952C1379.29 950.94 1385.12 949.986 1391 949.188L1387.57 936C1381.31 936.864 1375.12 937.861 1369 938.993Z" fill="#6C89B3" fill-rule="evenodd"/><path d="M1154.14 1103C1155.93 1098.83 1157.88 1094.71 1160 1090.65L1142.22 1086C1139.97 1090.31 1137.9 1094.68 1136 1099.09Z" fill="#6C89B3" fill-rule="evenodd"/><path d="M1745 1067.33C1742.29 1063.15 1739.41 1059.04 1736.37 1055L1720 1061.4C1722.86 1065.19 1725.56 1069.06 1728.11 1073Z" fill="#6C89B3" fill-rule="evenodd"/><path d="M1762 1100.16C1760.1 1095.72 1758.05 1091.33 1755.85 1087L1738 1091.62C1740.1 1095.65 1742.02 1099.82 1743.78 1104Z" fill="#6C89B3" fill-rule="evenodd"/><path d="M1147 1121.8 1128.41 1119C1127.1 1123.61 1125.96 1128.27 1125 1132.99L1143.78 1135C1144.67 1130.56 1145.77 1126.16 1147 1121.8Z" fill="#6C89B3" fill-rule="evenodd"/><path d="M1772 1134.02C1771.07 1129.3 1769.96 1124.63 1768.68 1120L1750 1122.77C1751.23 1127.14 1752.27 1131.56 1753.14 1136Z" fill="#6C89B3" fill-rule="evenodd"/><path d="M1692 1010.02C1687.79 1006.58 1683.44 1003.24 1678.97 1000L1666 1009.53C1670.23 1012.61 1674.33 1015.76 1678.31 1019Z" fill="#6C89B3" fill-rule="evenodd"/><path d="M1169.8 1072C1172.38 1068.08 1175.11 1064.23 1178 1060.44L1161.72 1054C1158.62 1058.01 1155.71 1062.11 1153 1066.28Z" fill="#6C89B3" fill-rule="evenodd"/><path d="M1220.15 1018C1224.32 1014.78 1228.6 1011.65 1233 1008.59L1219.62 999C1214.94 1002.22 1210.4 1005.56 1206 1008.98Z" fill="#6C89B3" fill-rule="evenodd"/><path d="M1192.49 1044C1195.85 1040.34 1199.35 1036.76 1203 1033.25L1188.14 1025C1184.27 1028.72 1180.56 1032.52 1177 1036.42Z" fill="#6C89B3" fill-rule="evenodd"/><path d="M1721 1037.47C1717.47 1033.57 1713.78 1029.74 1709.94 1026L1695 1034.19C1698.61 1037.7 1702.09 1041.32 1705.42 1045Z" fill="#6C89B3" fill-rule="evenodd"/><path d="M2463.18 963C2468.71 961.367 2474.31 959.847 2480 958.442L2473.87 946C2467.82 947.497 2461.86 949.114 2456 950.848Z" fill="#6C89B3" fill-rule="evenodd"/><path d="M2423.47 977C2428.56 974.797 2433.73 972.699 2439 970.707L2430.49 959C2424.89 961.107 2419.39 963.332 2414 965.677Z" fill="#6C89B3" fill-rule="evenodd"/><path d="M2386.81 996C2391.42 993.217 2396.15 990.532 2401 987.944L2390.06 977C2384.93 979.746 2379.91 982.595 2375 985.545Z" fill="#6C89B3" fill-rule="evenodd"/><path d="M2548 933.963 2549.87 947C2555.87 946.563 2561.91 946.264 2568 946.103L2567.23 933C2560.78 933.203 2554.36 933.511 2548 933.963Z" fill="#6C89B3" fill-rule="evenodd"/><path d="M2639 950.131C2644.86 950.967 2650.67 951.93 2656.4 953L2661 940.037C2654.93 938.908 2648.78 937.896 2642.55 937Z" fill="#6C89B3" fill-rule="evenodd"/><path d="M2731.62 960 2723 971.653C2728.25 973.659 2733.41 975.775 2738.46 978L2748 966.737C2742.65 964.388 2737.19 962.143 2731.62 960Z" fill="#6C89B3" fill-rule="evenodd"/><path d="M2594 946.041C2600.07 946.237 2606.09 946.557 2612.07 947.001L2614 934.005C2607.68 933.548 2601.29 933.209 2594.88 933Z" fill="#6C89B3" fill-rule="evenodd"/><path d="M2688.21 946 2682 958.373C2687.67 959.799 2693.27 961.341 2698.78 963L2706 950.91C2700.15 949.151 2694.22 947.514 2688.21 946Z" fill="#6C89B3" fill-rule="evenodd"/><path d="M2786 986.597C2781.32 983.625 2776.51 980.76 2771.58 978L2761 988.883C2765.65 991.49 2770.18 994.195 2774.61 997Z" fill="#6C89B3" fill-rule="evenodd"/><path d="M2501 939.993 2505.54 953C2511.29 951.94 2517.12 950.986 2523 950.188L2519.57 937C2513.31 937.864 2507.12 938.861 2501 939.993Z" fill="#6C89B3" fill-rule="evenodd"/><path d="M2289.13 1102C2290.93 1097.83 2292.88 1093.71 2295 1089.65L2277.22 1085C2274.97 1089.31 2272.9 1093.68 2271 1098.09Z" fill="#6C89B3" fill-rule="evenodd"/><path d="M2873 1067.33C2870.29 1063.15 2867.41 1059.04 2864.37 1055L2848 1061.4C2850.86 1065.19 2853.56 1069.06 2856.11 1073Z" fill="#6C89B3" fill-rule="evenodd"/><path d="M2890 1099.16C2888.1 1094.72 2886.05 1090.33 2883.85 1086L2866 1090.62C2868.1 1094.65 2870.02 1098.82 2871.78 1103Z" fill="#6C89B3" fill-rule="evenodd"/><path d="M2282 1120.63 2264.25 1118C2263 1122.32 2261.92 1126.69 2261 1131.12L2278.93 1133C2279.78 1128.84 2280.82 1124.72 2282 1120.63Z" fill="#6C89B3" fill-rule="evenodd"/><path d="M2900 1132.14C2899.07 1127.72 2897.96 1123.34 2896.68 1119L2878 1121.59C2879.23 1125.69 2880.27 1129.84 2881.14 1134Z" fill="#6C89B3" fill-rule="evenodd"/><path d="M2821 1010.02C2816.62 1006.58 2812.11 1003.24 2807.47 1000L2794 1009.53C2798.39 1012.61 2802.65 1015.76 2806.78 1019Z" fill="#6C89B3" fill-rule="evenodd"/><path d="M2304.8 1072C2307.38 1068.08 2310.11 1064.23 2313 1060.44L2296.72 1054C2293.62 1058.01 2290.71 1062.11 2288 1066.28Z" fill="#6C89B3" fill-rule="evenodd"/><path d="M2354.63 1018C2358.64 1014.95 2362.76 1011.98 2367 1009.09L2354.11 1000C2349.6 1003.06 2345.23 1006.22 2341 1009.45Z" fill="#6C89B3" fill-rule="evenodd"/><path d="M2327.49 1044C2330.85 1040.34 2334.35 1036.76 2338 1033.25L2323.14 1025C2319.27 1028.72 2315.56 1032.52 2312 1036.42Z" fill="#6C89B3" fill-rule="evenodd"/><path d="M2850 1037.47C2846.47 1033.57 2842.78 1029.75 2838.94 1026L2824 1034.19C2827.61 1037.7 2831.09 1041.32 2834.42 1045Z" fill="#6C89B3" fill-rule="evenodd"/><path d="M2014.5 1406.55C2023.57 1406.55 2031 1410.79 2031 1415.97 2031 1421.16 2023.57 1425.4 2014.5 1425.4 2005.42 1425.4 1998 1421.16 1998 1415.97 1998 1410.79 2005.42 1406.55 2014.5 1406.55ZM2113.5 1689.3C2113.5 1684.12 2106.07 1679.87 2097 1679.87L2039.25 1679.87 2039.25 1440.48C2046.67 1438.12 2053.27 1434.35 2057.4 1430.11L2215.8 1430.11 2259.52 1430.11 2270.25 1430.11C2284.27 1430.11 2295 1423.99 2295 1415.97 2295 1407.96 2284.27 1401.84 2270.25 1401.84L2057.4 1401.84C2053.27 1397.6 2046.67 1393.83 2039.25 1391.47L2039.25 1364.14C2039.25 1356.13 2028.53 1350 2014.5 1350 2000.47 1350 1989.75 1356.13 1989.75 1364.14L1989.75 1391.47C1982.32 1393.83 1975.72 1397.6 1971.6 1401.84L1758.75 1401.84C1744.72 1401.84 1734 1407.96 1734 1415.97 1734 1422.57 1742.25 1428.7 1753.8 1429.64L1797.52 1430.11 1970.77 1430.11C1974.9 1434.35 1981.5 1438.12 1988.92 1440.48L1988.92 1679.87 1931.18 1679.87C1922.1 1679.87 1914.67 1684.12 1914.67 1689.3L1914.67 1698.72 1816.5 1698.72 1816.5 1727 2212.5 1727 2212.5 1698.72 2113.5 1698.72 2113.5 1689.3Z" fill="#C8CCDA" fill-rule="evenodd"/><path d="M1813 1369 1084 1369C1084 1469.1 1248.03 1551 1448.5 1551 1648.98 1551 1813 1469.1 1813 1369Z" fill="#C8CCDA" fill-rule="evenodd"/><path d="M2216 1369C2216 1469.1 2380.03 1551 2580.5 1551 2780.98 1551 2945 1469.1 2945 1369L2216 1369Z" fill="#C8CCDA" fill-rule="evenodd"/><g><g><g><path d="M1921.84 1192 1987.84 1126 1951.06 1126C1963.09 1102.63 1987.5 1086.47 2015.69 1086.47 2033.91 1086.47 2050.75 1093.34 2063.47 1104.69L2130.5 1104.69C2110.22 1061.38 2066.22 1031.81 2015.69 1031.81 1956.91 1031.81 1907.41 1071.69 1892.97 1126L1855.84 1126 1921.84 1192Z" fill="#6C89B3"/><path d="M2175.19 1192 2109.19 1126 2043.19 1192 2080.31 1192C2068.28 1215.38 2043.88 1231.53 2015.69 1231.53 1997.47 1231.53 1980.63 1224.66 1967.91 1213.31L1900.53 1213.31C1921.16 1256.63 1964.81 1286.19 2015.69 1286.19 2074.47 1286.19 2123.97 1246.31 2138.41 1192L2175.19 1192Z" fill="#6C89B3"/></g></g></g><rect x="1500" y="1054" width="98" height="85.9999" fill="#E0E6F1"/><rect x="1398" y="1144" width="98" height="84.9999" fill="#EBF0F6"/><rect x="1398" y="1230" width="98" height="85.9999" fill="#EBF0F6"/><rect x="1302" y="1230" width="98" height="85.9999" fill="#E0E6F1"/><rect x="1300" y="1144" width="96.9999" height="85.9999" fill="#E0E6F1"/><rect x="1402" y="1051" width="98" height="86.0002" fill="#EBF0F6"/><rect x="1302" y="1056" width="93.9999" height="82.0001" fill="#FFFFFF" fill-opacity="0"/><rect x="1501" y="1147" width="93.9999" height="80.9998" fill="#FFFFFF" fill-opacity="0"/><rect x="1501" y="1233" width="93.9999" height="81.0001" fill="#FFFFFF" fill-opacity="0"/><rect x="1500" y="1143" width="98" height="85.9999" fill="#E0E6F1"/><rect x="1500" y="1231" width="98" height="85.9999" fill="#E0E6F1"/><rect x="1300" y="1053" width="96.9999" height="85.0002" fill="#E0E6F1"/><path d="M1294 1323 1603 1323 1603 1045 1294 1045ZM1302.13 1312.1 1302.13 1235.78 1395.64 1235.78 1395.64 1312.1ZM1493.22 1148.57 1493.22 1224.88 1403.78 1224.88 1403.78 1148.57ZM1403.78 1137.67 1403.78 1055.9 1493.22 1055.9 1493.22 1137.67ZM1501.36 1148.57 1594.87 1148.57 1594.87 1224.88 1501.36 1224.88ZM1395.64 1224.88 1302.13 1224.88 1302.13 1148.57 1395.64 1148.57ZM1403.78 1312.1 1403.78 1235.78 1493.22 1235.78 1493.22 1312.1ZM1501.36 1312.1 1501.36 1235.78 1594.87 1235.78 1594.87 1312.1ZM1594.87 1137.67 1501.36 1137.67 1501.36 1055.9 1594.87 1055.9ZM1395.64 1055.9 1395.64 1137.67 1302.13 1137.67 1302.13 1055.9Z" fill="#C8CCDA" fill-rule="evenodd"/><rect x="2632" y="1054" width="97" height="85.9999" fill="#E0E6F1"/><rect x="2530" y="1144" width="98" height="84.9999" fill="#EBF0F6"/><rect x="2530" y="1230" width="98" height="85.9999" fill="#EBF0F6"/><rect x="2434" y="1230" width="98" height="85.9999" fill="#E0E6F1"/><rect x="2431" y="1144" width="98" height="85.9999" fill="#E0E6F1"/><rect x="2534" y="1051" width="98" height="86.0002" fill="#EBF0F6"/><rect x="2434" y="1056" width="93.9998" height="82.0001" fill="#FFFFFF" fill-opacity="0"/><rect x="2633" y="1147" width="93.9998" height="80.9998" fill="#FFFFFF" fill-opacity="0"/><rect x="2633" y="1233" width="93.9998" height="81.0001" fill="#FFFFFF" fill-opacity="0"/><rect x="2632" y="1143" width="97" height="85.9999" fill="#E0E6F1"/><rect x="2632" y="1231" width="97" height="85.9999" fill="#E0E6F1"/><rect x="2431" y="1053" width="98" height="85.0002" fill="#E0E6F1"/><path d="M2426 1323 2735 1323 2735 1045 2426 1045ZM2434.13 1312.1 2434.13 1235.78 2527.64 1235.78 2527.64 1312.1ZM2625.22 1148.57 2625.22 1224.88 2535.78 1224.88 2535.78 1148.57ZM2535.78 1137.67 2535.78 1055.9 2625.22 1055.9 2625.22 1137.67ZM2633.36 1148.57 2726.87 1148.57 2726.87 1224.88 2633.36 1224.88ZM2527.64 1224.88 2434.13 1224.88 2434.13 1148.57 2527.64 1148.57ZM2535.78 1312.1 2535.78 1235.78 2625.22 1235.78 2625.22 1312.1ZM2633.36 1312.1 2633.36 1235.78 2726.87 1235.78 2726.87 1312.1ZM2726.87 1137.67 2633.36 1137.67 2633.36 1055.9 2726.87 1055.9ZM2527.64 1055.9 2527.64 1137.67 2434.13 1137.67 2434.13 1055.9Z" fill="#C8CCDA" fill-rule="evenodd"/></g></svg>