<svg width="2641" height="1174" xmlns="http://www.w3.org/2000/svg" xmlns:xlink="http://www.w3.org/1999/xlink" xml:space="preserve" overflow="hidden"><defs><clipPath id="clip0"><rect x="694" y="728" width="2641" height="1174"/></clipPath></defs><g clip-path="url(#clip0)" transform="translate(-694 -728)"><rect x="694" y="728" width="2641" height="1174" fill="#EDEFF3"/><path d="M607.093 0.0560132C417.186 4.88177 453.776 175.455 437.569 250.408 418.034 341.092 234.293 294.013 79.2026 343.402-103.397 401.521 75.803 502.922 157.858 559.864 295.997 655.687 215.461 728.913 306.077 827.551 400.456 930.326 659.088 993.576 828.397 920.284 971.039 858.554 946.148 754.434 1247.88 654.203 1490.07 573.755 1844.82 524.45 1927.17 339.206 1994.08 188.733 1848.59-21.7528 1496.87 67.6202 1382.32 96.7243 1273.5 155.122 1148.87 166.741 838.546 195.676 759.859-3.82121 607.093 0.0560132Z" fill="#FFFFFF" fill-rule="evenodd" fill-opacity="0.4" transform="matrix(1 0 0 -1 1089 1800)"/><path d="M2467.86 1036.79C2503.81 969.265 2387.46 894.265 2338.5 937.319 2289.58 980.44 2431.92 1104.26 2467.86 1036.79Z" fill="#FFFFFF" fill-rule="evenodd" fill-opacity="0.4"/><path d="M2700.75 1061.92C2726.81 1012.97 2642.47 958.61 2606.98 989.823 2571.52 1021.08 2674.7 1110.82 2700.75 1061.92Z" fill="#FFFFFF" fill-rule="evenodd" fill-opacity="0.4"/><path d="M2181.26 1705.78C2166.34 1673.76 2105.85 1695.62 2108.06 1725.63 2110.29 1755.62 2196.18 1737.8 2181.26 1705.78Z" fill="#FFFFFF" fill-rule="evenodd" fill-opacity="0.4"/><path d="M0 0 347.915 0.000360892" stroke="#C8CCDA" stroke-width="29.7917" stroke-linecap="round" stroke-linejoin="round" stroke-miterlimit="10" stroke-dasharray="0 59.5833" fill="none" fill-rule="evenodd" transform="matrix(-1 0 0 1 2193.92 1267)"/><path d="M2247 1251.79 2291.31 1251.79 2291.31 1148 2424 1314.5 2291.31 1481 2291.31 1377.21 2247 1377.21Z" fill="#C8CCDA" fill-rule="evenodd"/><path d="M0 0 347.915 0.000360892" stroke="#C8CCDA" stroke-width="29.7917" stroke-linecap="round" stroke-linejoin="round" stroke-miterlimit="10" stroke-dasharray="0 59.5833" fill="none" fill-rule="evenodd" transform="matrix(-1 0 0 1 2193.92 1354)"/><path d="M1366.5 1533.5 1203.5 1509.44 1203.5 1335.5 1366.5 1359.56Z" stroke="#EBF0F6" stroke-width="3.4375" stroke-miterlimit="8" fill="#58B6E7" fill-rule="evenodd"/><path d="M1366.7 1535.5C1366.61 1535.5 1366.52 1535.5 1366.44 1535.48L1203.04 1511.37C1202.16 1511.24 1201.5 1510.49 1201.5 1509.59L1201.5 1335.29C1201.5 1334.76 1201.72 1334.27 1202.13 1333.94 1202.53 1333.59 1203.04 1333.44 1203.56 1333.52L1366.96 1357.63C1367.84 1357.76 1368.5 1358.51 1368.5 1359.41L1368.5 1533.71C1368.5 1534.24 1368.28 1534.73 1367.88 1535.06 1367.54 1535.34 1367.12 1535.5 1366.7 1535.5ZM1205.12 1508.04 1364.92 1531.62 1364.92 1360.95 1205.12 1337.36 1205.12 1508.04Z" stroke="#EBF0F6" stroke-width="3.4375" stroke-miterlimit="8" fill="#0E5078" fill-rule="evenodd"/><path d="M1366.5 1533.5 1485.5 1469.84 1485.5 1295.5 1366.5 1359.16Z" stroke="#EBF0F6" stroke-width="3.4375" stroke-miterlimit="8" fill="#2896D2" fill-rule="evenodd"/><path d="M1367.29 1535.5C1366.98 1535.5 1366.65 1535.41 1366.38 1535.24 1365.83 1534.91 1365.5 1534.33 1365.5 1533.7L1365.5 1359.09C1365.5 1358.43 1365.86 1357.82 1366.45 1357.49L1484.86 1293.71C1485.4 1293.42 1486.08 1293.43 1486.62 1293.75 1487.17 1294.08 1487.5 1294.66 1487.5 1295.29L1487.5 1469.9C1487.5 1470.56 1487.14 1471.17 1486.55 1471.5L1368.14 1535.26C1367.87 1535.43 1367.58 1535.5 1367.29 1535.5ZM1369.07 1360.15 1369.07 1530.69 1483.91 1468.86 1483.91 1298.31 1369.07 1360.15Z" stroke="#EBF0F6" stroke-width="3.4375" stroke-miterlimit="8" fill="#0E5078" fill-rule="evenodd"/><path d="M1322.47 1271.5 1203.5 1335.35 1366.47 1359.5 1485.5 1295.67Z" stroke="#EBF0F6" stroke-width="3.4375" stroke-miterlimit="8" fill="#78C7EF" fill-rule="evenodd"/><path d="M1366.51 1361.5C1366.42 1361.5 1366.32 1361.5 1366.25 1361.48L1203.03 1337.22C1202.26 1337.11 1201.65 1336.52 1201.52 1335.75 1201.4 1334.97 1201.76 1334.22 1202.44 1333.85L1321.58 1269.72C1321.91 1269.54 1322.31 1269.46 1322.7 1269.52L1485.97 1293.78C1486.74 1293.89 1487.35 1294.48 1487.47 1295.25 1487.6 1296.03 1487.24 1296.78 1486.56 1297.15L1367.35 1361.28C1367.09 1361.43 1366.8 1361.5 1366.51 1361.5ZM1208.94 1334.42 1366.19 1357.8 1480.07 1296.53 1322.77 1273.15 1208.94 1334.42Z" stroke="#EBF0F6" stroke-width="3.4375" stroke-miterlimit="8" fill="#0E5078" fill-rule="evenodd"/><path d="M1366.5 1359.5 1203.5 1335.31 1203.5 1160.5 1366.5 1184.69Z" stroke="#EBF0F6" stroke-width="3.4375" stroke-miterlimit="8" fill="#58B6E7" fill-rule="evenodd"/><path d="M1366.7 1361.5C1366.61 1361.5 1366.52 1361.5 1366.44 1361.48L1203.04 1337.25C1202.16 1337.12 1201.5 1336.37 1201.5 1335.46L1201.5 1160.3C1201.5 1159.77 1201.72 1159.27 1202.13 1158.94 1202.53 1158.59 1203.04 1158.44 1203.56 1158.52L1366.96 1182.75C1367.84 1182.88 1368.5 1183.64 1368.5 1184.54L1368.5 1359.7C1368.5 1360.21 1368.28 1360.73 1367.88 1361.06 1367.54 1361.34 1367.12 1361.5 1366.7 1361.5ZM1205.12 1333.9 1364.92 1357.6 1364.92 1186.08 1205.12 1162.38 1205.12 1333.9Z" stroke="#EBF0F6" stroke-width="3.4375" stroke-miterlimit="8" fill="#0E5078" fill-rule="evenodd"/><path d="M1366.5 1359.5 1485.5 1295.57 1485.5 1120.5 1366.5 1184.43Z" stroke="#EBF0F6" stroke-width="3.4375" stroke-miterlimit="8" fill="#2896D2" fill-rule="evenodd"/><path d="M1367.29 1361.5C1366.98 1361.5 1366.65 1361.41 1366.38 1361.24 1365.83 1360.91 1365.5 1360.32 1365.5 1359.7L1365.5 1184.34C1365.5 1183.68 1365.86 1183.07 1366.45 1182.74L1484.86 1118.71C1485.4 1118.42 1486.08 1118.43 1486.62 1118.75 1487.17 1119.08 1487.5 1119.67 1487.5 1120.29L1487.5 1295.64C1487.5 1296.31 1487.14 1296.92 1486.55 1297.23L1368.14 1361.28C1367.87 1361.43 1367.58 1361.5 1367.29 1361.5ZM1369.07 1185.41 1369.07 1356.67 1483.91 1294.58 1483.91 1123.32 1369.07 1185.41Z" stroke="#EBF0F6" stroke-width="3.4375" stroke-miterlimit="8" fill="#0E5078" fill-rule="evenodd"/><path d="M1322.47 1096.5 1203.5 1160.35 1366.47 1184.5 1485.5 1120.67Z" stroke="#EBF0F6" stroke-width="3.4375" stroke-miterlimit="8" fill="#78C7EF" fill-rule="evenodd"/><path d="M1366.51 1186.5C1366.42 1186.5 1366.32 1186.5 1366.25 1186.48L1203.03 1162.22C1202.26 1162.11 1201.65 1161.52 1201.52 1160.75 1201.4 1159.97 1201.76 1159.22 1202.44 1158.85L1321.58 1094.71C1321.91 1094.53 1322.31 1094.47 1322.7 1094.51L1485.97 1118.78C1486.74 1118.89 1487.35 1119.48 1487.47 1120.25 1487.6 1121.02 1487.24 1121.78 1486.56 1122.15L1367.35 1186.28C1367.09 1186.45 1366.8 1186.5 1366.51 1186.5ZM1208.94 1159.44 1366.19 1182.82 1480.07 1121.54 1322.77 1098.16 1208.94 1159.44Z" stroke="#EBF0F6" stroke-width="3.4375" stroke-miterlimit="8" fill="#0E5078" fill-rule="evenodd"/><path d="M1366.5 1184.5 1203.5 1160.32 1203.5 985.5 1366.5 1009.71Z" stroke="#EBF0F6" stroke-width="3.4375" stroke-miterlimit="8" fill="#58B6E7" fill-rule="evenodd"/><path d="M1366.7 1186.5C1366.61 1186.5 1366.52 1186.5 1366.44 1186.48L1203.04 1162.25C1202.16 1162.12 1201.5 1161.36 1201.5 1160.46L1201.5 985.297C1201.5 984.763 1201.72 984.267 1202.13 983.935 1202.53 983.587 1203.04 983.457 1203.56 983.512L1366.96 1007.75C1367.84 1007.88 1368.5 1008.63 1368.5 1009.53L1368.5 1184.7C1368.5 1185.23 1368.28 1185.73 1367.88 1186.06 1367.54 1186.35 1367.12 1186.5 1366.7 1186.5ZM1205.12 1158.92 1364.92 1182.62 1364.92 1011.1 1205.12 987.395 1205.12 1158.92Z" stroke="#EBF0F6" stroke-width="3.4375" stroke-miterlimit="8" fill="#0E5078" fill-rule="evenodd"/><path d="M1366.5 1184.5 1485.5 1120.57 1485.5 945.5 1366.5 1009.45Z" stroke="#EBF0F6" stroke-width="3.4375" stroke-miterlimit="8" fill="#2896D2" fill-rule="evenodd"/><path d="M1366.3 1186.5C1365.99 1186.5 1365.66 1186.41 1365.38 1186.24 1364.83 1185.91 1364.5 1185.33 1364.5 1184.7L1364.5 1010.06C1364.5 1009.4 1364.87 1008.79 1365.46 1008.48L1484.83 944.71C1485.39 944.415 1486.07 944.435 1486.62 944.747 1487.17 945.076 1487.5 945.664 1487.5 946.288L1487.5 1120.93C1487.5 1121.59 1487.13 1122.19 1486.54 1122.51L1367.17 1186.28C1366.89 1186.45 1366.6 1186.5 1366.3 1186.5ZM1368.1 1011.14 1368.1 1181.71 1483.88 1119.87 1483.88 949.296 1368.1 1011.14Z" stroke="#EBF0F6" stroke-width="3.4375" stroke-miterlimit="8" fill="#0E5078" fill-rule="evenodd"/><path d="M1322.47 921.5 1203.5 985.331 1366.47 1009.5 1485.5 945.65Z" stroke="#EBF0F6" stroke-width="3.4375" stroke-miterlimit="8" fill="#CDD8E9" fill-rule="evenodd"/><path d="M1529.5 1557.5 1366.5 1533.31 1366.5 1358.5 1529.5 1382.69Z" stroke="#EBF0F6" stroke-width="3.4375" stroke-miterlimit="8" fill="#58B6E7" fill-rule="evenodd"/><path d="M1529.71 1559.5C1529.62 1559.5 1529.53 1559.5 1529.45 1559.48L1367.03 1535.37C1366.16 1535.24 1365.5 1534.49 1365.5 1533.59L1365.5 1359.3C1365.5 1358.78 1365.72 1358.27 1366.12 1357.94 1366.52 1357.59 1367.05 1357.44 1367.55 1357.52L1529.97 1381.63C1530.84 1381.76 1531.5 1382.51 1531.5 1383.41L1531.5 1557.71C1531.5 1558.24 1531.28 1558.73 1530.88 1559.06 1530.55 1559.36 1530.13 1559.5 1529.71 1559.5ZM1369.08 1532.04 1527.92 1555.62 1527.92 1384.95 1369.08 1361.36 1369.08 1532.04Z" stroke="#EBF0F6" stroke-width="3.4375" stroke-miterlimit="8" fill="#0E5078" fill-rule="evenodd"/><path d="M1529.5 1557.5 1649.5 1493.84 1649.5 1319.5 1529.5 1383.16Z" stroke="#EBF0F6" stroke-width="3.4375" stroke-miterlimit="8" fill="#2896D2" fill-rule="evenodd"/><path d="M1530.29 1559.5C1529.98 1559.5 1529.65 1559.41 1529.38 1559.24 1528.83 1558.91 1528.5 1558.33 1528.5 1557.7L1528.5 1383.06C1528.5 1382.4 1528.87 1381.79 1529.45 1381.48L1647.86 1317.71C1648.4 1317.42 1649.08 1317.43 1649.63 1317.75 1650.17 1318.08 1650.5 1318.66 1650.5 1319.29L1650.5 1493.93C1650.5 1494.59 1650.14 1495.19 1649.55 1495.51L1531.14 1559.28C1530.87 1559.43 1530.58 1559.5 1530.29 1559.5ZM1532.08 1384.14 1532.08 1554.71 1646.91 1492.87 1646.91 1322.3 1532.08 1384.14Z" stroke="#EBF0F6" stroke-width="3.4375" stroke-miterlimit="8" fill="#0E5078" fill-rule="evenodd"/><path d="M1485.89 1294.5 1366.5 1359.07 1530.05 1383.5 1649.5 1318.93Z" stroke="#EBF0F6" stroke-width="3.4375" stroke-miterlimit="8" fill="#78C7EF" fill-rule="evenodd"/><path d="M1529.93 1384.5C1529.84 1384.5 1529.75 1384.5 1529.67 1384.48L1367.03 1360.48C1366.26 1360.37 1365.65 1359.79 1365.52 1359.03 1365.4 1358.26 1365.76 1357.51 1366.44 1357.15L1485.16 1293.72C1485.5 1293.54 1485.89 1293.46 1486.27 1293.52L1648.97 1317.52C1649.74 1317.63 1650.35 1318.21 1650.47 1318.97 1650.6 1319.74 1650.24 1320.49 1649.56 1320.85L1530.77 1384.28C1530.52 1384.43 1530.22 1384.5 1529.93 1384.5ZM1372.9 1357.73 1529.6 1380.86 1643.08 1320.25 1486.33 1297.13 1372.9 1357.73Z" stroke="#EBF0F6" stroke-width="3.4375" stroke-miterlimit="8" fill="#0E5078" fill-rule="evenodd"/><path d="M1529.5 1383.5 1366.5 1359.32 1366.5 1184.5 1529.5 1208.69Z" stroke="#EBF0F6" stroke-width="3.4375" stroke-miterlimit="8" fill="#58B6E7" fill-rule="evenodd"/><path d="M1529.71 1384.5C1529.62 1384.5 1529.53 1384.5 1529.45 1384.48L1367.03 1360.37C1366.16 1360.24 1365.5 1359.49 1365.5 1358.59L1365.5 1184.29C1365.5 1183.76 1365.72 1183.27 1366.12 1182.94 1366.52 1182.59 1367.05 1182.44 1367.55 1182.52L1529.97 1206.63C1530.84 1206.76 1531.5 1207.51 1531.5 1208.41L1531.5 1382.71C1531.5 1383.24 1531.28 1383.73 1530.88 1384.06 1530.55 1384.36 1530.13 1384.5 1529.71 1384.5ZM1369.08 1357.04 1527.92 1380.62 1527.92 1209.95 1369.08 1186.36 1369.08 1357.04Z" stroke="#EBF0F6" stroke-width="3.4375" stroke-miterlimit="8" fill="#0E5078" fill-rule="evenodd"/><path d="M1529.5 1383.5 1649.5 1319.57 1649.5 1144.5 1529.5 1208.43Z" stroke="#EBF0F6" stroke-width="3.4375" stroke-miterlimit="8" fill="#2896D2" fill-rule="evenodd"/><path d="M1530.29 1384.5C1529.98 1384.5 1529.65 1384.41 1529.38 1384.24 1528.83 1383.91 1528.5 1383.33 1528.5 1382.7L1528.5 1208.06C1528.5 1207.4 1528.87 1206.79 1529.45 1206.48L1647.86 1142.71C1648.4 1142.42 1649.08 1142.43 1649.63 1142.75 1650.17 1143.08 1650.5 1143.66 1650.5 1144.29L1650.5 1318.93C1650.5 1319.59 1650.14 1320.19 1649.55 1320.53L1531.14 1384.3C1530.87 1384.43 1530.58 1384.5 1530.29 1384.5ZM1532.08 1209.14 1532.08 1379.71 1646.91 1317.87 1646.91 1147.3 1532.08 1209.14Z" stroke="#EBF0F6" stroke-width="3.4375" stroke-miterlimit="8" fill="#0E5078" fill-rule="evenodd"/><path d="M1485.89 1120.5 1366.5 1184.35 1530.05 1208.5 1649.5 1144.65Z" stroke="#EBF0F6" stroke-width="3.4375" stroke-miterlimit="8" fill="#78C7EF" fill-rule="evenodd"/><path d="M1529.93 1210.5C1529.84 1210.5 1529.75 1210.5 1529.67 1210.48L1367.03 1186.22C1366.26 1186.11 1365.65 1185.52 1365.52 1184.75 1365.4 1183.97 1365.76 1183.22 1366.44 1182.85L1485.16 1118.71C1485.5 1118.53 1485.89 1118.47 1486.27 1118.51L1648.97 1142.78C1649.74 1142.89 1650.35 1143.49 1650.47 1144.25 1650.6 1145.02 1650.24 1145.78 1649.56 1146.15L1530.77 1210.28C1530.52 1210.43 1530.22 1210.5 1529.93 1210.5ZM1372.9 1183.44 1529.6 1206.82 1643.08 1145.54 1486.33 1122.16 1372.9 1183.44Z" stroke="#EBF0F6" stroke-width="3.4375" stroke-miterlimit="8" fill="#0E5078" fill-rule="evenodd"/><path d="M1529.5 1208.5 1366.5 1184.31 1366.5 1009.5 1529.5 1033.69Z" stroke="#EBF0F6" stroke-width="3.4375" stroke-miterlimit="8" fill="#58B6E7" fill-rule="evenodd"/><path d="M1529.71 1210.5C1529.62 1210.5 1529.53 1210.5 1529.45 1210.48L1367.03 1186.25C1366.16 1186.12 1365.5 1185.37 1365.5 1184.46L1365.5 1009.3C1365.5 1008.77 1365.72 1008.27 1366.12 1007.94 1366.52 1007.59 1367.05 1007.44 1367.55 1007.52L1529.97 1031.75C1530.84 1031.88 1531.5 1032.64 1531.5 1033.54L1531.5 1208.7C1531.5 1209.23 1531.28 1209.73 1530.88 1210.06 1530.55 1210.35 1530.13 1210.5 1529.71 1210.5ZM1369.08 1182.9 1527.92 1206.6 1527.92 1035.08 1369.08 1011.38 1369.08 1182.9Z" stroke="#EBF0F6" stroke-width="3.4375" stroke-miterlimit="8" fill="#0E5078" fill-rule="evenodd"/><path d="M1529.5 1208.5 1649.5 1144.57 1649.5 969.5 1529.5 1033.43Z" stroke="#EBF0F6" stroke-width="3.4375" stroke-miterlimit="8" fill="#2896D2" fill-rule="evenodd"/><path d="M1530.29 1210.5C1529.98 1210.5 1529.65 1210.41 1529.38 1210.24 1528.83 1209.91 1528.5 1209.32 1528.5 1208.7L1528.5 1033.34C1528.5 1032.68 1528.87 1032.07 1529.45 1031.74L1647.86 967.711C1648.4 967.415 1649.08 967.434 1649.63 967.748 1650.17 968.078 1650.5 968.668 1650.5 969.295L1650.5 1144.64C1650.5 1145.31 1650.14 1145.91 1649.55 1146.25L1531.14 1210.28C1530.87 1210.43 1530.58 1210.5 1530.29 1210.5ZM1532.08 1034.43 1532.08 1205.69 1646.91 1143.59 1646.91 972.353 1532.08 1034.43Z" stroke="#EBF0F6" stroke-width="3.4375" stroke-miterlimit="8" fill="#0E5078" fill-rule="evenodd"/><path d="M1485.89 945.5 1366.5 1009.35 1530.05 1033.5 1649.5 969.655Z" stroke="#EBF0F6" stroke-width="3.4375" stroke-miterlimit="8" fill="#CDD8E9" fill-rule="evenodd"/><path d="M1693.5 1582.5 1530.5 1558.32 1530.5 1383.5 1693.5 1407.69Z" stroke="#EBF0F6" stroke-width="3.4375" stroke-miterlimit="8" fill="#58B6E7" fill-rule="evenodd"/><path d="M1693.7 1584.5C1693.61 1584.5 1693.52 1584.5 1693.44 1584.48L1530.04 1560.25C1529.16 1560.12 1528.5 1559.37 1528.5 1558.46L1528.5 1383.3C1528.5 1382.79 1528.72 1382.27 1529.13 1381.94 1529.53 1381.59 1530.04 1381.44 1530.56 1381.52L1693.96 1405.75C1694.84 1405.88 1695.5 1406.64 1695.5 1407.54L1695.5 1582.7C1695.5 1583.23 1695.28 1583.73 1694.88 1584.06 1694.55 1584.35 1694.12 1584.5 1693.7 1584.5ZM1532.1 1556.9 1691.9 1580.6 1691.9 1409.08 1532.1 1385.38 1532.1 1556.9Z" stroke="#EBF0F6" stroke-width="3.4375" stroke-miterlimit="8" fill="#0E5078" fill-rule="evenodd"/><path d="M1693.5 1582.5 1812.5 1518.57 1812.5 1343.5 1693.5 1407.43Z" stroke="#EBF0F6" stroke-width="3.4375" stroke-miterlimit="8" fill="#6C89B3" fill-rule="evenodd"/><path d="M1649.47 1319.5 1530.5 1383.35 1693.47 1407.5 1812.5 1343.65Z" stroke="#EBF0F6" stroke-width="3.4375" stroke-miterlimit="8" fill="#78C7EF" fill-rule="evenodd"/><path d="M1693.5 1409.5C1693.41 1409.5 1693.31 1409.5 1693.24 1409.48L1530.03 1385.21C1529.26 1385.1 1528.65 1384.51 1528.53 1383.73 1528.4 1382.96 1528.76 1382.2 1529.44 1381.84L1648.59 1317.72C1648.92 1317.54 1649.32 1317.46 1649.71 1317.52L1812.97 1341.78C1813.74 1341.89 1814.35 1342.48 1814.48 1343.25 1814.6 1344.02 1814.24 1344.78 1813.56 1345.15L1694.36 1409.26C1694.08 1409.43 1693.79 1409.5 1693.5 1409.5ZM1535.93 1382.42 1693.17 1405.8 1807.04 1344.54 1649.74 1321.16 1535.93 1382.42Z" stroke="#EBF0F6" stroke-width="3.4375" stroke-miterlimit="8" fill="#0E5078" fill-rule="evenodd"/><path d="M1693.5 1407.5 1530.5 1383.31 1530.5 1208.5 1693.5 1232.69Z" stroke="#EBF0F6" stroke-width="3.4375" stroke-miterlimit="8" fill="#58B6E7" fill-rule="evenodd"/><path d="M1693.7 1409.5C1693.61 1409.5 1693.52 1409.5 1693.44 1409.48L1530.04 1385.23C1529.16 1385.1 1528.5 1384.35 1528.5 1383.45L1528.5 1208.3C1528.5 1207.77 1528.72 1207.27 1529.13 1206.94 1529.53 1206.59 1530.04 1206.44 1530.56 1206.52L1693.96 1230.75C1694.84 1230.88 1695.5 1231.63 1695.5 1232.54L1695.5 1407.68C1695.5 1408.19 1695.28 1408.71 1694.88 1409.04 1694.55 1409.34 1694.12 1409.5 1693.7 1409.5ZM1532.1 1381.9 1691.9 1405.6 1691.9 1234.1 1532.1 1210.4 1532.1 1381.9Z" stroke="#EBF0F6" stroke-width="3.4375" stroke-miterlimit="8" fill="#0E5078" fill-rule="evenodd"/><path d="M1693.5 1407.5 1812.5 1343.84 1812.5 1169.5 1693.5 1233.16Z" stroke="#EBF0F6" stroke-width="3.4375" stroke-miterlimit="8" fill="#6C89B3" fill-rule="evenodd"/><path d="M1649.47 1144.5 1530.5 1208.35 1693.47 1232.5 1812.5 1168.67Z" stroke="#EBF0F6" stroke-width="3.4375" stroke-miterlimit="8" fill="#78C7EF" fill-rule="evenodd"/><path d="M1693.5 1234.5C1693.41 1234.5 1693.31 1234.5 1693.24 1234.48L1530.03 1210.48C1529.26 1210.37 1528.65 1209.79 1528.53 1209.03 1528.4 1208.26 1528.76 1207.51 1529.44 1207.15L1648.59 1143.72C1648.92 1143.54 1649.32 1143.46 1649.71 1143.52L1812.97 1167.52C1813.74 1167.63 1814.35 1168.21 1814.48 1168.97 1814.6 1169.74 1814.24 1170.49 1813.56 1170.85L1694.36 1234.28C1694.08 1234.45 1693.79 1234.5 1693.5 1234.5ZM1535.93 1207.75 1693.17 1230.87 1807.04 1170.27 1649.74 1147.14 1535.93 1207.75Z" stroke="#EBF0F6" stroke-width="3.4375" stroke-miterlimit="8" fill="#0E5078" fill-rule="evenodd"/><path d="M1693.5 1232.5 1530.5 1208.44 1530.5 1034.5 1693.5 1058.58Z" stroke="#EBF0F6" stroke-width="3.4375" stroke-miterlimit="8" fill="#58B6E7" fill-rule="evenodd"/><path d="M1693.7 1234.5C1693.61 1234.5 1693.52 1234.5 1693.44 1234.48L1530.04 1210.37C1529.16 1210.24 1528.5 1209.49 1528.5 1208.59L1528.5 1034.29C1528.5 1033.76 1528.72 1033.26 1529.13 1032.93 1529.53 1032.58 1530.04 1032.46 1530.56 1032.51L1693.96 1056.63C1694.84 1056.76 1695.5 1057.51 1695.5 1058.4L1695.5 1232.71C1695.5 1233.24 1695.28 1233.73 1694.88 1234.06 1694.55 1234.35 1694.12 1234.5 1693.7 1234.5ZM1532.1 1207.05 1691.9 1230.64 1691.9 1059.96 1532.1 1036.38 1532.1 1207.05Z" stroke="#EBF0F6" stroke-width="3.4375" stroke-miterlimit="8" fill="#0E5078" fill-rule="evenodd"/><path d="M1693.5 1232.5 1812.5 1168.84 1812.5 994.5 1693.5 1058.18Z" stroke="#EBF0F6" stroke-width="3.4375" stroke-miterlimit="8" fill="#6C89B3" fill-rule="evenodd"/><path d="M1649.47 970.5 1530.5 1034.33 1693.47 1058.5 1812.5 994.649Z" stroke="#EBF0F6" stroke-width="3.4375" stroke-miterlimit="8" fill="#CDD8E9" fill-rule="evenodd"/><path d="M1249.5 1597.5 1086.5 1573.32 1086.5 1398.5 1249.5 1422.69Z" stroke="#EBF0F6" stroke-width="3.4375" stroke-miterlimit="8" fill="#58B6E7" fill-rule="evenodd"/><path d="M1249.7 1598.5C1249.61 1598.5 1249.52 1598.5 1249.44 1598.48L1086.04 1574.37C1085.16 1574.24 1084.5 1573.49 1084.5 1572.59L1084.5 1398.29C1084.5 1397.76 1084.72 1397.27 1085.13 1396.94 1085.53 1396.59 1086.04 1396.44 1086.56 1396.52L1249.96 1420.63C1250.84 1420.76 1251.5 1421.51 1251.5 1422.41L1251.5 1596.71C1251.5 1597.24 1251.28 1597.73 1250.88 1598.06 1250.54 1598.34 1250.12 1598.5 1249.7 1598.5ZM1088.12 1571.04 1247.92 1594.62 1247.92 1423.95 1088.12 1400.36 1088.12 1571.04Z" stroke="#EBF0F6" stroke-width="3.4375" stroke-miterlimit="8" fill="#0E5078" fill-rule="evenodd"/><path d="M1249.5 1597.5 1368.5 1533.57 1368.5 1358.5 1249.5 1422.43Z" stroke="#EBF0F6" stroke-width="3.4375" stroke-miterlimit="8" fill="#2896D2" fill-rule="evenodd"/><path d="M1249.3 1598.5C1248.99 1598.5 1248.66 1598.41 1248.38 1598.24 1247.83 1597.91 1247.5 1597.33 1247.5 1596.7L1247.5 1422.09C1247.5 1421.43 1247.87 1420.82 1248.46 1420.49L1367.83 1356.71C1368.39 1356.42 1369.07 1356.43 1369.62 1356.75 1370.17 1357.08 1370.5 1357.66 1370.5 1358.29L1370.5 1532.9C1370.5 1533.56 1370.13 1534.17 1369.54 1534.5L1250.17 1598.26C1249.89 1598.43 1249.6 1598.5 1249.3 1598.5ZM1251.1 1423.15 1251.1 1593.69 1366.88 1531.86 1366.88 1361.31 1251.1 1423.15Z" stroke="#EBF0F6" stroke-width="3.4375" stroke-miterlimit="8" fill="#0E5078" fill-rule="evenodd"/><path d="M1205.47 1334.5 1086.5 1398.35 1249.47 1422.5 1368.5 1358.67Z" stroke="#EBF0F6" stroke-width="3.4375" stroke-miterlimit="8" fill="#78C7EF" fill-rule="evenodd"/><path d="M1249.51 1424.5C1249.42 1424.5 1249.32 1424.5 1249.25 1424.48L1086.03 1400.22C1085.26 1400.11 1084.65 1399.52 1084.53 1398.75 1084.4 1397.97 1084.76 1397.22 1085.44 1396.85L1204.58 1332.72C1204.91 1332.54 1205.31 1332.46 1205.7 1332.52L1368.97 1356.78C1369.74 1356.89 1370.35 1357.48 1370.47 1358.25 1370.6 1359.03 1370.24 1359.78 1369.56 1360.15L1250.35 1424.28C1250.09 1424.43 1249.8 1424.5 1249.51 1424.5ZM1091.94 1397.42 1249.19 1420.8 1363.07 1359.53 1205.77 1336.15 1091.94 1397.42Z" stroke="#EBF0F6" stroke-width="3.4375" stroke-miterlimit="8" fill="#0E5078" fill-rule="evenodd"/><path d="M1249.5 1422.5 1086.5 1398.31 1086.5 1223.5 1249.5 1247.69Z" stroke="#EBF0F6" stroke-width="3.4375" stroke-miterlimit="8" fill="#58B6E7" fill-rule="evenodd"/><path d="M1249.7 1424.5C1249.61 1424.5 1249.52 1424.5 1249.44 1424.48L1086.04 1400.25C1085.16 1400.12 1084.5 1399.37 1084.5 1398.46L1084.5 1223.3C1084.5 1222.77 1084.72 1222.27 1085.13 1221.94 1085.53 1221.59 1086.04 1221.44 1086.56 1221.52L1249.96 1245.75C1250.84 1245.88 1251.5 1246.64 1251.5 1247.54L1251.5 1422.7C1251.5 1423.21 1251.28 1423.73 1250.88 1424.06 1250.54 1424.34 1250.12 1424.5 1249.7 1424.5ZM1088.12 1396.9 1247.92 1420.6 1247.92 1249.08 1088.12 1225.38 1088.12 1396.9Z" stroke="#EBF0F6" stroke-width="3.4375" stroke-miterlimit="8" fill="#0E5078" fill-rule="evenodd"/><path d="M1249.5 1422.5 1368.5 1358.57 1368.5 1183.5 1249.5 1247.43Z" stroke="#EBF0F6" stroke-width="3.4375" stroke-miterlimit="8" fill="#2896D2" fill-rule="evenodd"/><path d="M1249.3 1424.5C1248.99 1424.5 1248.66 1424.41 1248.38 1424.24 1247.83 1423.91 1247.5 1423.33 1247.5 1422.7L1247.5 1248.07C1247.5 1247.41 1247.87 1246.81 1248.46 1246.48L1367.83 1182.71C1368.39 1182.42 1369.07 1182.43 1369.62 1182.75 1370.17 1183.08 1370.5 1183.66 1370.5 1184.29L1370.5 1358.92C1370.5 1359.58 1370.13 1360.18 1369.54 1360.49L1250.17 1424.28C1249.89 1424.43 1249.6 1424.5 1249.3 1424.5ZM1251.1 1249.14 1251.1 1419.69 1366.88 1357.85 1366.88 1187.3 1251.1 1249.14Z" stroke="#EBF0F6" stroke-width="3.4375" stroke-miterlimit="8" fill="#0E5078" fill-rule="evenodd"/><path d="M1205.47 1159.5 1086.5 1223.35 1249.47 1247.5 1368.5 1183.67Z" stroke="#EBF0F6" stroke-width="3.4375" stroke-miterlimit="8" fill="#78C7EF" fill-rule="evenodd"/><path d="M1249.51 1249.5C1249.42 1249.5 1249.32 1249.5 1249.25 1249.48L1086.03 1225.22C1085.26 1225.11 1084.65 1224.52 1084.53 1223.75 1084.4 1222.97 1084.76 1222.22 1085.44 1221.85L1204.58 1157.71C1204.91 1157.53 1205.31 1157.47 1205.7 1157.51L1368.97 1181.78C1369.74 1181.89 1370.35 1182.48 1370.47 1183.25 1370.6 1184.02 1370.24 1184.78 1369.56 1185.15L1250.35 1249.28C1250.09 1249.45 1249.8 1249.5 1249.51 1249.5ZM1091.94 1222.44 1249.19 1245.82 1363.07 1184.54 1205.77 1161.16 1091.94 1222.44Z" stroke="#EBF0F6" stroke-width="3.4375" stroke-miterlimit="8" fill="#0E5078" fill-rule="evenodd"/><path d="M1249.5 1247.5 1086.5 1223.32 1086.5 1048.5 1249.5 1072.7Z" stroke="#EBF0F6" stroke-width="3.4375" stroke-miterlimit="8" fill="#58B6E7" fill-rule="evenodd"/><path d="M1249.7 1249.5C1249.61 1249.5 1249.52 1249.5 1249.44 1249.48L1086.04 1225.25C1085.16 1225.12 1084.5 1224.36 1084.5 1223.46L1084.5 1048.3C1084.5 1047.76 1084.72 1047.27 1085.13 1046.93 1085.53 1046.59 1086.04 1046.46 1086.56 1046.51L1249.96 1070.75C1250.84 1070.88 1251.5 1071.63 1251.5 1072.53L1251.5 1247.7C1251.5 1248.23 1251.28 1248.73 1250.88 1249.06 1250.54 1249.35 1250.12 1249.5 1249.7 1249.5ZM1088.12 1221.92 1247.92 1245.62 1247.92 1074.1 1088.12 1050.39 1088.12 1221.92Z" stroke="#EBF0F6" stroke-width="3.4375" stroke-miterlimit="8" fill="#0E5078" fill-rule="evenodd"/><path d="M1249.5 1247.5 1368.5 1183.84 1368.5 1009.5 1249.5 1073.18Z" stroke="#EBF0F6" stroke-width="3.4375" stroke-miterlimit="8" fill="#2896D2" fill-rule="evenodd"/><path d="M1249.3 1249.5C1248.99 1249.5 1248.66 1249.41 1248.38 1249.24 1247.83 1248.91 1247.5 1248.33 1247.5 1247.7L1247.5 1073.06C1247.5 1072.4 1247.87 1071.79 1248.46 1071.48L1367.83 1007.71C1368.39 1007.42 1369.07 1007.43 1369.62 1007.75 1370.17 1008.08 1370.5 1008.66 1370.5 1009.29L1370.5 1183.93C1370.5 1184.59 1370.13 1185.19 1369.54 1185.51L1250.17 1249.28C1249.89 1249.45 1249.6 1249.5 1249.3 1249.5ZM1251.1 1074.14 1251.1 1244.71 1366.88 1182.87 1366.88 1012.3 1251.1 1074.14Z" stroke="#EBF0F6" stroke-width="3.4375" stroke-miterlimit="8" fill="#0E5078" fill-rule="evenodd"/><path d="M1205.47 984.5 1086.5 1048.33 1249.47 1072.5 1368.5 1008.65Z" stroke="#EBF0F6" stroke-width="3.4375" stroke-miterlimit="8" fill="#CDD8E9" fill-rule="evenodd"/><path d="M1412.5 1620.5 1249.5 1596.31 1249.5 1421.5 1412.5 1445.69Z" stroke="#EBF0F6" stroke-width="3.4375" stroke-miterlimit="8" fill="#58B6E7" fill-rule="evenodd"/><path d="M1412.7 1622.5C1412.61 1622.5 1412.52 1622.5 1412.44 1622.48L1249.04 1598.37C1248.16 1598.24 1247.5 1597.49 1247.5 1596.59L1247.5 1422.3C1247.5 1421.78 1247.72 1421.27 1248.13 1420.94 1248.53 1420.59 1249.06 1420.44 1249.56 1420.52L1412.96 1444.63C1413.84 1444.76 1414.5 1445.51 1414.5 1446.41L1414.5 1620.71C1414.5 1621.24 1414.28 1621.73 1413.88 1622.06 1413.54 1622.36 1413.12 1622.5 1412.7 1622.5ZM1251.1 1595.04 1410.9 1618.62 1410.9 1447.95 1251.1 1424.36 1251.1 1595.04Z" stroke="#EBF0F6" stroke-width="3.4375" stroke-miterlimit="8" fill="#0E5078" fill-rule="evenodd"/><path d="M1412.5 1620.5 1532.5 1556.84 1532.5 1382.5 1412.5 1446.16Z" stroke="#EBF0F6" stroke-width="3.4375" stroke-miterlimit="8" fill="#2896D2" fill-rule="evenodd"/><path d="M1413.29 1622.5C1412.98 1622.5 1412.65 1622.41 1412.38 1622.24 1411.83 1621.91 1411.5 1621.33 1411.5 1620.7L1411.5 1446.06C1411.5 1445.4 1411.87 1444.79 1412.45 1444.48L1530.86 1380.71C1531.4 1380.42 1532.08 1380.43 1532.63 1380.75 1533.17 1381.08 1533.5 1381.66 1533.5 1382.29L1533.5 1556.93C1533.5 1557.59 1533.14 1558.19 1532.55 1558.51L1414.14 1622.28C1413.87 1622.43 1413.58 1622.5 1413.29 1622.5ZM1415.07 1447.14 1415.07 1617.71 1529.91 1555.87 1529.91 1385.3 1415.07 1447.14Z" stroke="#EBF0F6" stroke-width="3.4375" stroke-miterlimit="8" fill="#0E5078" fill-rule="evenodd"/><path d="M1368.89 1358.5 1249.5 1422.35 1413.05 1446.5 1532.5 1382.65Z" stroke="#EBF0F6" stroke-width="3.4375" stroke-miterlimit="8" fill="#78C7EF" fill-rule="evenodd"/><path d="M1412.51 1447.5C1412.42 1447.5 1412.32 1447.5 1412.25 1447.48L1249.03 1423.48C1248.26 1423.37 1247.65 1422.79 1247.53 1422.03 1247.4 1421.26 1247.76 1420.51 1248.44 1420.15L1367.58 1356.72C1367.93 1356.54 1368.31 1356.46 1368.7 1356.52L1531.97 1380.52C1532.74 1380.63 1533.35 1381.21 1533.47 1381.97 1533.6 1382.74 1533.24 1383.49 1532.56 1383.85L1413.35 1447.28C1413.09 1447.43 1412.8 1447.5 1412.51 1447.5ZM1254.93 1420.73 1412.18 1443.86 1526.06 1383.25 1368.75 1360.13 1254.93 1420.73Z" stroke="#EBF0F6" stroke-width="3.4375" stroke-miterlimit="8" fill="#0E5078" fill-rule="evenodd"/><path d="M1412.5 1446.5 1249.5 1422.32 1249.5 1247.5 1412.5 1271.69Z" stroke="#EBF0F6" stroke-width="3.4375" stroke-miterlimit="8" fill="#58B6E7" fill-rule="evenodd"/><path d="M1412.7 1447.5C1412.61 1447.5 1412.52 1447.5 1412.44 1447.48L1249.04 1423.37C1248.16 1423.24 1247.5 1422.49 1247.5 1421.59L1247.5 1247.29C1247.5 1246.76 1247.72 1246.27 1248.13 1245.94 1248.53 1245.59 1249.06 1245.44 1249.56 1245.52L1412.96 1269.63C1413.84 1269.76 1414.5 1270.51 1414.5 1271.41L1414.5 1445.71C1414.5 1446.24 1414.28 1446.73 1413.88 1447.06 1413.54 1447.36 1413.12 1447.5 1412.7 1447.5ZM1251.1 1420.04 1410.9 1443.62 1410.9 1272.95 1251.1 1249.36 1251.1 1420.04Z" stroke="#EBF0F6" stroke-width="3.4375" stroke-miterlimit="8" fill="#0E5078" fill-rule="evenodd"/><path d="M1412.5 1446.5 1532.5 1382.57 1532.5 1207.5 1412.5 1271.43Z" stroke="#EBF0F6" stroke-width="3.4375" stroke-miterlimit="8" fill="#2896D2" fill-rule="evenodd"/><path d="M1413.29 1447.5C1412.98 1447.5 1412.65 1447.41 1412.38 1447.24 1411.83 1446.91 1411.5 1446.33 1411.5 1445.7L1411.5 1271.06C1411.5 1270.4 1411.87 1269.79 1412.45 1269.48L1530.86 1205.71C1531.4 1205.42 1532.08 1205.43 1532.63 1205.75 1533.17 1206.08 1533.5 1206.66 1533.5 1207.29L1533.5 1381.93C1533.5 1382.59 1533.14 1383.19 1532.55 1383.53L1414.14 1447.3C1413.87 1447.43 1413.58 1447.5 1413.29 1447.5ZM1415.07 1272.14 1415.07 1442.71 1529.91 1380.87 1529.91 1210.3 1415.07 1272.14Z" stroke="#EBF0F6" stroke-width="3.4375" stroke-miterlimit="8" fill="#0E5078" fill-rule="evenodd"/><path d="M1368.89 1183.5 1249.5 1247.35 1413.05 1271.5 1532.5 1207.65Z" stroke="#EBF0F6" stroke-width="3.4375" stroke-miterlimit="8" fill="#78C7EF" fill-rule="evenodd"/><path d="M1412.51 1273.5C1412.42 1273.5 1412.32 1273.5 1412.25 1273.48L1249.03 1249.22C1248.26 1249.11 1247.65 1248.52 1247.53 1247.75 1247.4 1246.97 1247.76 1246.22 1248.44 1245.85L1367.58 1181.71C1367.93 1181.53 1368.31 1181.47 1368.7 1181.51L1531.97 1205.78C1532.74 1205.89 1533.35 1206.49 1533.47 1207.25 1533.6 1208.02 1533.24 1208.78 1532.56 1209.15L1413.35 1273.28C1413.09 1273.43 1412.8 1273.5 1412.51 1273.5ZM1254.93 1246.44 1412.18 1269.82 1526.06 1208.54 1368.75 1185.16 1254.93 1246.44Z" stroke="#EBF0F6" stroke-width="3.4375" stroke-miterlimit="8" fill="#0E5078" fill-rule="evenodd"/><path d="M1412.5 1271.5 1249.5 1247.31 1249.5 1072.5 1412.5 1096.69Z" stroke="#EBF0F6" stroke-width="3.4375" stroke-miterlimit="8" fill="#58B6E7" fill-rule="evenodd"/><path d="M1412.7 1273.5C1412.61 1273.5 1412.52 1273.5 1412.44 1273.48L1249.04 1249.25C1248.16 1249.12 1247.5 1248.37 1247.5 1247.46L1247.5 1072.3C1247.5 1071.77 1247.72 1071.27 1248.13 1070.94 1248.53 1070.59 1249.06 1070.44 1249.56 1070.52L1412.96 1094.75C1413.84 1094.88 1414.5 1095.64 1414.5 1096.54L1414.5 1271.7C1414.5 1272.23 1414.28 1272.73 1413.88 1273.06 1413.54 1273.36 1413.12 1273.5 1412.7 1273.5ZM1251.1 1245.9 1410.9 1269.6 1410.9 1098.08 1251.1 1074.38 1251.1 1245.9Z" stroke="#EBF0F6" stroke-width="3.4375" stroke-miterlimit="8" fill="#0E5078" fill-rule="evenodd"/><path d="M1412.5 1271.5 1532.5 1207.57 1532.5 1032.5 1412.5 1096.43Z" stroke="#EBF0F6" stroke-width="3.4375" stroke-miterlimit="8" fill="#2896D2" fill-rule="evenodd"/><path d="M1413.29 1273.5C1412.98 1273.5 1412.65 1273.41 1412.38 1273.24 1411.83 1272.91 1411.5 1272.33 1411.5 1271.7L1411.5 1097.07C1411.5 1096.41 1411.87 1095.81 1412.45 1095.48L1530.86 1031.71C1531.4 1031.42 1532.08 1031.43 1532.63 1031.75 1533.17 1032.08 1533.5 1032.66 1533.5 1033.29L1533.5 1207.92C1533.5 1208.58 1533.14 1209.18 1532.55 1209.51L1414.14 1273.28C1413.87 1273.43 1413.58 1273.5 1413.29 1273.5ZM1415.07 1098.16 1415.07 1268.71 1529.91 1206.87 1529.91 1036.33 1415.07 1098.16Z" stroke="#EBF0F6" stroke-width="3.4375" stroke-miterlimit="8" fill="#0E5078" fill-rule="evenodd"/><path d="M1368.89 1008.5 1249.5 1072.35 1413.05 1096.5 1532.5 1032.65Z" stroke="#EBF0F6" stroke-width="3.4375" stroke-miterlimit="8" fill="#CDD8E9" fill-rule="evenodd"/><path d="M1576.5 1645.5 1413.5 1621.32 1413.5 1446.5 1576.5 1470.69Z" stroke="#EBF0F6" stroke-width="3.4375" stroke-miterlimit="8" fill="#58B6E7" fill-rule="evenodd"/><path d="M1576.7 1647.5C1576.61 1647.5 1576.52 1647.5 1576.44 1647.48L1413.04 1623.25C1412.16 1623.12 1411.5 1622.37 1411.5 1621.46L1411.5 1446.3C1411.5 1445.79 1411.72 1445.27 1412.13 1444.94 1412.53 1444.59 1413.04 1444.44 1413.56 1444.52L1576.96 1468.75C1577.84 1468.88 1578.5 1469.64 1578.5 1470.54L1578.5 1645.7C1578.5 1646.23 1578.28 1646.73 1577.88 1647.06 1577.55 1647.36 1577.12 1647.5 1576.7 1647.5ZM1415.1 1619.9 1574.9 1643.6 1574.9 1472.08 1415.1 1448.38 1415.1 1619.9Z" stroke="#EBF0F6" stroke-width="3.4375" stroke-miterlimit="8" fill="#0E5078" fill-rule="evenodd"/><path d="M1576.5 1645.5 1695.5 1581.84 1695.5 1407.5 1576.5 1471.16Z" stroke="#EBF0F6" stroke-width="3.4375" stroke-miterlimit="8" fill="#6C89B3" fill-rule="evenodd"/><path d="M1532.47 1382.5 1413.5 1446.35 1576.47 1470.5 1695.5 1406.65Z" stroke="#EBF0F6" stroke-width="3.4375" stroke-miterlimit="8" fill="#78C7EF" fill-rule="evenodd"/><path d="M1576.5 1472.5C1576.41 1472.5 1576.31 1472.5 1576.24 1472.48L1413.03 1448.21C1412.26 1448.1 1411.65 1447.51 1411.52 1446.73 1411.4 1445.96 1411.76 1445.2 1412.44 1444.84L1531.59 1380.72C1531.92 1380.54 1532.32 1380.46 1532.71 1380.52L1695.97 1404.78C1696.74 1404.89 1697.35 1405.48 1697.48 1406.25 1697.6 1407.02 1697.24 1407.78 1696.56 1408.15L1577.36 1472.26C1577.08 1472.43 1576.79 1472.5 1576.5 1472.5ZM1418.93 1445.42 1576.17 1468.8 1690.04 1407.54 1532.74 1384.16 1418.93 1445.42Z" stroke="#EBF0F6" stroke-width="3.4375" stroke-miterlimit="8" fill="#0E5078" fill-rule="evenodd"/><path d="M1576.5 1470.5 1413.5 1446.31 1413.5 1271.5 1576.5 1295.69Z" stroke="#EBF0F6" stroke-width="3.4375" stroke-miterlimit="8" fill="#58B6E7" fill-rule="evenodd"/><path d="M1576.7 1472.5C1576.61 1472.5 1576.52 1472.5 1576.44 1472.48L1413.04 1448.35C1412.16 1448.22 1411.5 1447.47 1411.5 1446.58L1411.5 1272.29C1411.5 1271.76 1411.72 1271.27 1412.13 1270.94 1412.53 1270.59 1413.04 1270.44 1413.56 1270.52L1576.96 1294.63C1577.84 1294.76 1578.5 1295.51 1578.5 1296.41L1578.5 1470.69C1578.5 1471.2 1578.28 1471.71 1577.88 1472.04 1577.55 1472.34 1577.12 1472.5 1576.7 1472.5ZM1415.1 1445.04 1574.9 1468.62 1574.9 1297.96 1415.1 1274.38 1415.1 1445.04Z" stroke="#EBF0F6" stroke-width="3.4375" stroke-miterlimit="8" fill="#0E5078" fill-rule="evenodd"/><path d="M1576.5 1470.5 1695.5 1406.84 1695.5 1232.5 1576.5 1296.16Z" stroke="#EBF0F6" stroke-width="3.4375" stroke-miterlimit="8" fill="#6C89B3" fill-rule="evenodd"/><path d="M1532.47 1208.5 1413.5 1272.35 1576.47 1296.5 1695.5 1232.67Z" stroke="#EBF0F6" stroke-width="3.4375" stroke-miterlimit="8" fill="#78C7EF" fill-rule="evenodd"/><path d="M1576.5 1297.5C1576.41 1297.5 1576.31 1297.5 1576.24 1297.48L1413.03 1273.49C1412.26 1273.37 1411.65 1272.79 1411.52 1272.03 1411.4 1271.26 1411.76 1270.51 1412.44 1270.15L1531.59 1206.72C1531.92 1206.54 1532.32 1206.46 1532.71 1206.52L1695.97 1230.52C1696.74 1230.63 1697.35 1231.21 1697.48 1231.97 1697.6 1232.74 1697.24 1233.49 1696.56 1233.85L1577.36 1297.28C1577.08 1297.45 1576.79 1297.5 1576.5 1297.5ZM1418.93 1270.75 1576.17 1293.87 1690.04 1233.27 1532.74 1210.14 1418.93 1270.75Z" stroke="#EBF0F6" stroke-width="3.4375" stroke-miterlimit="8" fill="#0E5078" fill-rule="evenodd"/><path d="M1576.5 1296.5 1413.5 1272.31 1413.5 1097.5 1576.5 1121.71Z" stroke="#EBF0F6" stroke-width="3.4375" stroke-miterlimit="8" fill="#58B6E7" fill-rule="evenodd"/><path d="M1576.7 1297.5C1576.61 1297.5 1576.52 1297.5 1576.44 1297.48L1413.04 1273.37C1412.16 1273.24 1411.5 1272.49 1411.5 1271.59L1411.5 1097.29C1411.5 1096.76 1411.72 1096.26 1412.13 1095.93 1412.53 1095.58 1413.04 1095.46 1413.56 1095.51L1576.96 1119.63C1577.84 1119.76 1578.5 1120.51 1578.5 1121.4L1578.5 1295.71C1578.5 1296.24 1578.28 1296.73 1577.88 1297.06 1577.55 1297.35 1577.12 1297.5 1576.7 1297.5ZM1415.1 1270.05 1574.9 1293.64 1574.9 1122.96 1415.1 1099.38 1415.1 1270.05Z" stroke="#EBF0F6" stroke-width="3.4375" stroke-miterlimit="8" fill="#0E5078" fill-rule="evenodd"/><path d="M1576.5 1296.5 1695.5 1232.57 1695.5 1057.5 1576.5 1121.45Z" stroke="#EBF0F6" stroke-width="3.4375" stroke-miterlimit="8" fill="#6C89B3" fill-rule="evenodd"/><path d="M1532.47 1033.5 1413.5 1097.33 1576.47 1121.5 1695.5 1057.65Z" stroke="#EBF0F6" stroke-width="3.4375" stroke-miterlimit="8" fill="#CDD8E9" fill-rule="evenodd"/><path d="M1132.5 1660.5 969.5 1636.32 969.5 1461.5 1132.5 1485.69Z" stroke="#EBF0F6" stroke-width="3.4375" stroke-miterlimit="8" fill="#BECEE4" fill-rule="evenodd"/><path d="M1132.5 1660.5 1251.5 1596.57 1251.5 1421.5 1132.5 1485.43Z" stroke="#EBF0F6" stroke-width="3.4375" stroke-miterlimit="8" fill="#2896D2" fill-rule="evenodd"/><path d="M1132.3 1662.5C1131.99 1662.5 1131.66 1662.41 1131.38 1662.24 1130.83 1661.91 1130.5 1661.32 1130.5 1660.7L1130.5 1485.36C1130.5 1484.7 1130.87 1484.09 1131.46 1483.76L1250.83 1419.71C1251.39 1419.41 1252.07 1419.43 1252.62 1419.75 1253.17 1420.08 1253.5 1420.67 1253.5 1421.29L1253.5 1596.63C1253.5 1597.29 1253.13 1597.9 1252.54 1598.23L1133.17 1662.26C1132.89 1662.43 1132.6 1662.5 1132.3 1662.5ZM1134.1 1486.43 1134.1 1657.68 1249.88 1595.58 1249.88 1424.33 1134.1 1486.43Z" stroke="#EBF0F6" stroke-width="3.4375" stroke-miterlimit="8" fill="#0E5078" fill-rule="evenodd"/><path d="M1088.47 1397.5 969.5 1461.35 1132.47 1485.5 1251.5 1421.67Z" stroke="#EBF0F6" stroke-width="3.4375" stroke-miterlimit="8" fill="#78C7EF" fill-rule="evenodd"/><path d="M1132.51 1487.5C1132.42 1487.5 1132.32 1487.5 1132.25 1487.48L969.031 1463.22C968.26 1463.11 967.654 1462.52 967.525 1461.75 967.396 1460.97 967.764 1460.22 968.443 1459.85L1087.58 1395.72C1087.91 1395.54 1088.31 1395.46 1088.7 1395.52L1251.97 1419.78C1252.74 1419.89 1253.35 1420.48 1253.48 1421.25 1253.6 1422.03 1253.24 1422.78 1252.56 1423.15L1133.35 1487.28C1133.09 1487.43 1132.8 1487.5 1132.51 1487.5ZM974.943 1460.42 1132.19 1483.8 1246.07 1422.53 1088.77 1399.15 974.943 1460.42Z" stroke="#EBF0F6" stroke-width="3.4375" stroke-miterlimit="8" fill="#0E5078" fill-rule="evenodd"/><path d="M1132.5 1485.5 969.5 1461.31 969.5 1286.5 1132.5 1310.69Z" stroke="#EBF0F6" stroke-width="3.4375" stroke-miterlimit="8" fill="#BECEE4" fill-rule="evenodd"/><path d="M1132.5 1485.5 1251.5 1421.57 1251.5 1246.5 1132.5 1310.43Z" stroke="#EBF0F6" stroke-width="3.4375" stroke-miterlimit="8" fill="#2896D2" fill-rule="evenodd"/><path d="M1132.3 1487.5C1131.99 1487.5 1131.66 1487.41 1131.38 1487.24 1130.83 1486.91 1130.5 1486.33 1130.5 1485.7L1130.5 1311.07C1130.5 1310.41 1130.87 1309.81 1131.46 1309.48L1250.83 1245.71C1251.39 1245.42 1252.07 1245.43 1252.62 1245.75 1253.17 1246.08 1253.5 1246.66 1253.5 1247.29L1253.5 1421.92C1253.5 1422.58 1253.13 1423.18 1252.54 1423.49L1133.17 1487.28C1132.89 1487.43 1132.6 1487.5 1132.3 1487.5ZM1134.1 1312.14 1134.1 1482.69 1249.88 1420.85 1249.88 1250.3 1134.1 1312.14Z" stroke="#EBF0F6" stroke-width="3.4375" stroke-miterlimit="8" fill="#0E5078" fill-rule="evenodd"/><path d="M1088.47 1222.5 969.5 1286.35 1132.47 1310.5 1251.5 1246.67Z" stroke="#EBF0F6" stroke-width="3.4375" stroke-miterlimit="8" fill="#78C7EF" fill-rule="evenodd"/><path d="M1132.51 1312.5C1132.42 1312.5 1132.32 1312.5 1132.25 1312.48L969.031 1288.22C968.26 1288.11 967.654 1287.52 967.525 1286.75 967.396 1285.97 967.764 1285.22 968.443 1284.85L1087.58 1220.71C1087.91 1220.53 1088.31 1220.47 1088.7 1220.51L1251.97 1244.78C1252.74 1244.89 1253.35 1245.48 1253.48 1246.25 1253.6 1247.02 1253.24 1247.78 1252.56 1248.15L1133.35 1312.28C1133.09 1312.45 1132.8 1312.5 1132.51 1312.5ZM974.943 1285.44 1132.19 1308.82 1246.07 1247.54 1088.77 1224.16 974.943 1285.44Z" stroke="#EBF0F6" stroke-width="3.4375" stroke-miterlimit="8" fill="#0E5078" fill-rule="evenodd"/><path d="M1132.5 1310.5 969.5 1286.32 969.5 1111.5 1132.5 1135.7Z" stroke="#EBF0F6" stroke-width="3.4375" stroke-miterlimit="8" fill="#BECEE4" fill-rule="evenodd"/><path d="M1132.5 1310.5 1251.5 1246.84 1251.5 1072.5 1132.5 1136.18Z" stroke="#EBF0F6" stroke-width="3.4375" stroke-miterlimit="8" fill="#2896D2" fill-rule="evenodd"/><path d="M1132.3 1312.5C1131.99 1312.5 1131.66 1312.41 1131.38 1312.24 1130.83 1311.91 1130.5 1311.33 1130.5 1310.7L1130.5 1136.06C1130.5 1135.4 1130.87 1134.79 1131.46 1134.48L1250.83 1070.71C1251.39 1070.42 1252.07 1070.43 1252.62 1070.75 1253.17 1071.08 1253.5 1071.66 1253.5 1072.29L1253.5 1246.93C1253.5 1247.59 1253.13 1248.19 1252.54 1248.51L1133.17 1312.28C1132.89 1312.45 1132.6 1312.5 1132.3 1312.5ZM1134.1 1137.14 1134.1 1307.71 1249.88 1245.87 1249.88 1075.3 1134.1 1137.14Z" stroke="#EBF0F6" stroke-width="3.4375" stroke-miterlimit="8" fill="#0E5078" fill-rule="evenodd"/><path d="M1088.47 1047.5 969.5 1112.06 1132.47 1136.5 1251.5 1071.92Z" stroke="#EBF0F6" stroke-width="3.4375" stroke-miterlimit="8" fill="#CDD8E9" fill-rule="evenodd"/><path d="M1295.5 1684.5 1132.5 1660.31 1132.5 1485.5 1295.5 1509.69Z" stroke="#EBF0F6" stroke-width="3.4375" stroke-miterlimit="8" fill="#BECEE4" fill-rule="evenodd"/><path d="M1295.5 1684.5 1414.5 1620.57 1414.5 1445.5 1295.5 1509.43Z" stroke="#EBF0F6" stroke-width="3.4375" stroke-miterlimit="8" fill="#2896D2" fill-rule="evenodd"/><path d="M1295.3 1685.5C1294.99 1685.5 1294.66 1685.41 1294.38 1685.24 1293.83 1684.91 1293.5 1684.33 1293.5 1683.7L1293.5 1509.06C1293.5 1508.4 1293.87 1507.79 1294.46 1507.48L1413.84 1443.71C1414.39 1443.42 1415.07 1443.43 1415.62 1443.75 1416.17 1444.08 1416.5 1444.66 1416.5 1445.29L1416.5 1619.93C1416.5 1620.59 1416.13 1621.19 1415.55 1621.51L1296.17 1685.28C1295.89 1685.43 1295.6 1685.5 1295.3 1685.5ZM1297.1 1510.14 1297.1 1680.71 1412.88 1618.87 1412.88 1448.3 1297.1 1510.14Z" stroke="#EBF0F6" stroke-width="3.4375" stroke-miterlimit="8" fill="#0E5078" fill-rule="evenodd"/><path d="M1251.47 1421.5 1132.5 1485.35 1295.48 1509.5 1414.5 1445.65Z" stroke="#EBF0F6" stroke-width="3.4375" stroke-miterlimit="8" fill="#78C7EF" fill-rule="evenodd"/><path d="M1295.51 1511.5C1295.42 1511.5 1295.32 1511.5 1295.25 1511.48L1132.03 1487.22C1131.26 1487.11 1130.65 1486.52 1130.53 1485.75 1130.4 1484.97 1130.76 1484.22 1131.44 1483.85L1250.58 1419.72C1250.93 1419.54 1251.31 1419.46 1251.7 1419.52L1414.97 1443.78C1415.74 1443.89 1416.35 1444.48 1416.48 1445.25 1416.6 1446.03 1416.24 1446.78 1415.56 1447.15L1296.35 1511.28C1296.09 1511.43 1295.8 1511.5 1295.51 1511.5ZM1137.93 1484.44 1295.18 1507.82 1409.06 1446.54 1251.75 1423.17 1137.93 1484.44Z" stroke="#EBF0F6" stroke-width="3.4375" stroke-miterlimit="8" fill="#0E5078" fill-rule="evenodd"/><path d="M1295.5 1509.5 1132.5 1485.32 1132.5 1310.5 1295.5 1334.69Z" stroke="#EBF0F6" stroke-width="3.4375" stroke-miterlimit="8" fill="#BECEE4" fill-rule="evenodd"/><path d="M1295.5 1509.5 1414.5 1445.57 1414.5 1270.5 1295.5 1334.43Z" stroke="#EBF0F6" stroke-width="3.4375" stroke-miterlimit="8" fill="#2896D2" fill-rule="evenodd"/><path d="M1295.3 1511.5C1294.99 1511.5 1294.66 1511.41 1294.38 1511.24 1293.83 1510.91 1293.5 1510.32 1293.5 1509.7L1293.5 1334.33C1293.5 1333.67 1293.87 1333.06 1294.46 1332.75L1413.84 1268.71C1414.39 1268.41 1415.07 1268.43 1415.62 1268.75 1416.17 1269.08 1416.5 1269.67 1416.5 1270.29L1416.5 1445.66C1416.5 1446.32 1416.13 1446.93 1415.55 1447.26L1296.17 1511.3C1295.89 1511.43 1295.6 1511.5 1295.3 1511.5ZM1297.1 1335.42 1297.1 1506.69 1412.88 1444.59 1412.88 1273.32 1297.1 1335.42Z" stroke="#EBF0F6" stroke-width="3.4375" stroke-miterlimit="8" fill="#0E5078" fill-rule="evenodd"/><path d="M1251.47 1246.5 1132.5 1310.35 1295.48 1334.5 1414.5 1270.65Z" stroke="#EBF0F6" stroke-width="3.4375" stroke-miterlimit="8" fill="#78C7EF" fill-rule="evenodd"/><path d="M1295.51 1336.5C1295.42 1336.5 1295.32 1336.5 1295.25 1336.48L1132.03 1312.22C1131.26 1312.11 1130.65 1311.52 1130.53 1310.75 1130.4 1309.97 1130.76 1309.22 1131.44 1308.85L1250.58 1244.71C1250.93 1244.53 1251.31 1244.47 1251.7 1244.51L1414.97 1268.78C1415.74 1268.89 1416.35 1269.49 1416.48 1270.25 1416.6 1271.02 1416.24 1271.78 1415.56 1272.15L1296.35 1336.28C1296.09 1336.43 1295.8 1336.5 1295.51 1336.5ZM1137.93 1309.44 1295.18 1332.82 1409.06 1271.54 1251.75 1248.16 1137.93 1309.44Z" stroke="#EBF0F6" stroke-width="3.4375" stroke-miterlimit="8" fill="#0E5078" fill-rule="evenodd"/><path d="M1295.5 1334.5 1132.5 1310.31 1132.5 1135.5 1295.5 1159.69Z" stroke="#EBF0F6" stroke-width="3.4375" stroke-miterlimit="8" fill="#BECEE4" fill-rule="evenodd"/><path d="M1295.5 1334.5 1414.5 1270.84 1414.5 1096.5 1295.5 1160.16Z" stroke="#EBF0F6" stroke-width="3.4375" stroke-miterlimit="8" fill="#2896D2" fill-rule="evenodd"/><path d="M1295.3 1336.5C1294.99 1336.5 1294.66 1336.41 1294.38 1336.24 1293.83 1335.91 1293.5 1335.33 1293.5 1334.7L1293.5 1160.07C1293.5 1159.41 1293.87 1158.81 1294.46 1158.48L1413.84 1094.71C1414.39 1094.42 1415.07 1094.43 1415.62 1094.75 1416.17 1095.08 1416.5 1095.66 1416.5 1096.29L1416.5 1270.92C1416.5 1271.58 1416.13 1272.18 1415.55 1272.51L1296.17 1336.28C1295.89 1336.43 1295.6 1336.5 1295.3 1336.5ZM1297.1 1161.16 1297.1 1331.71 1412.88 1269.87 1412.88 1099.33 1297.1 1161.16Z" stroke="#EBF0F6" stroke-width="3.4375" stroke-miterlimit="8" fill="#0E5078" fill-rule="evenodd"/><path d="M1251.47 1071.5 1132.5 1135.35 1295.48 1159.5 1414.5 1095.65Z" stroke="#EBF0F6" stroke-width="3.4375" stroke-miterlimit="8" fill="#CDD8E9" fill-rule="evenodd"/><path d="M1459.5 1708.5 1296.5 1684.32 1296.5 1509.5 1459.5 1533.69Z" stroke="#EBF0F6" stroke-width="3.4375" stroke-miterlimit="8" fill="#BECEE4" fill-rule="evenodd"/><path d="M1459.5 1708.5 1578.5 1644.84 1578.5 1470.5 1459.5 1534.16Z" stroke="#EBF0F6" stroke-width="3.4375" stroke-miterlimit="8" fill="#6C89B3" fill-rule="evenodd"/><path d="M1415.47 1445.5 1296.5 1510.07 1459.47 1534.5 1578.5 1469.93Z" stroke="#EBF0F6" stroke-width="3.4375" stroke-miterlimit="8" fill="#78C7EF" fill-rule="evenodd"/><path d="M1459.5 1535.5C1459.41 1535.5 1459.31 1535.5 1459.24 1535.48L1296.03 1511.47C1295.26 1511.36 1294.65 1510.78 1294.53 1510.01 1294.4 1509.25 1294.76 1508.5 1295.44 1508.14L1414.59 1444.72C1414.92 1444.54 1415.32 1444.46 1415.71 1444.52L1578.97 1468.51C1579.74 1468.62 1580.35 1469.2 1580.48 1469.97 1580.6 1470.73 1580.24 1471.48 1579.56 1471.85L1460.36 1535.26C1460.08 1535.43 1459.79 1535.5 1459.5 1535.5ZM1301.93 1508.72 1459.17 1531.84 1573.04 1471.24 1415.74 1448.12 1301.93 1508.72Z" stroke="#EBF0F6" stroke-width="3.4375" stroke-miterlimit="8" fill="#0E5078" fill-rule="evenodd"/><path d="M1459.5 1534.5 1296.5 1510.31 1296.5 1335.5 1459.5 1359.69Z" stroke="#EBF0F6" stroke-width="3.4375" stroke-miterlimit="8" fill="#BECEE4" fill-rule="evenodd"/><path d="M1459.5 1534.5 1578.5 1470.57 1578.5 1295.5 1459.5 1359.43Z" stroke="#EBF0F6" stroke-width="3.4375" stroke-miterlimit="8" fill="#6C89B3" fill-rule="evenodd"/><path d="M1415.47 1271.5 1296.5 1335.35 1459.47 1359.5 1578.5 1295.67Z" stroke="#EBF0F6" stroke-width="3.4375" stroke-miterlimit="8" fill="#78C7EF" fill-rule="evenodd"/><path d="M1459.5 1361.5C1459.41 1361.5 1459.31 1361.5 1459.24 1361.48L1296.03 1337.22C1295.26 1337.11 1294.65 1336.52 1294.53 1335.75 1294.4 1334.97 1294.76 1334.22 1295.44 1333.85L1414.59 1269.72C1414.92 1269.54 1415.32 1269.46 1415.71 1269.52L1578.97 1293.78C1579.74 1293.89 1580.35 1294.48 1580.48 1295.25 1580.6 1296.03 1580.24 1296.78 1579.56 1297.15L1460.36 1361.28C1460.08 1361.45 1459.79 1361.5 1459.5 1361.5ZM1301.93 1334.46 1459.17 1357.83 1573.04 1296.56 1415.74 1273.18 1301.93 1334.46Z" stroke="#EBF0F6" stroke-width="3.4375" stroke-miterlimit="8" fill="#0E5078" fill-rule="evenodd"/><path d="M1459.5 1359.5 1296.5 1335.31 1296.5 1160.5 1459.5 1184.7Z" stroke="#EBF0F6" stroke-width="3.4375" stroke-miterlimit="8" fill="#BECEE4" fill-rule="evenodd"/><path d="M1459.5 1359.5 1578.5 1295.57 1578.5 1120.5 1459.5 1184.45Z" stroke="#EBF0F6" stroke-width="3.4375" stroke-miterlimit="8" fill="#6C89B3" fill-rule="evenodd"/><path d="M1415.47 1096.5 1296.5 1160.33 1459.47 1184.5 1578.5 1120.65Z" stroke="#EBF0F6" stroke-width="3.4375" stroke-miterlimit="8" fill="#CDD8E9" fill-rule="evenodd"/><path d="M2648.5 1384.5 2525.5 1366.27 2525.5 1234.5 2648.5 1252.73Z" stroke="#EBF0F6" stroke-width="3.4375" stroke-miterlimit="8" fill="#BECEE4" fill-rule="evenodd"/><path d="M2648.5 1384.5 2738.5 1336.35 2738.5 1204.5 2648.5 1252.65Z" stroke="#EBF0F6" stroke-width="3.4375" stroke-miterlimit="8" fill="#6C89B3" fill-rule="evenodd"/><path d="M2615.36 1186.5 2525.5 1234.38 2648.6 1252.5 2738.5 1204.62Z" stroke="#EBF0F6" stroke-width="3.4375" stroke-miterlimit="8" fill="#CDD8E9" fill-rule="evenodd"/><path d="M2806.5 1410.5 2683.5 1392.27 2683.5 1260.5 2806.5 1278.73Z" stroke="#EBF0F6" stroke-width="3.4375" stroke-miterlimit="8" fill="#BECEE4" fill-rule="evenodd"/><path d="M2806.5 1410.5 2896.5 1362.35 2896.5 1230.5 2806.5 1278.65Z" stroke="#EBF0F6" stroke-width="3.4375" stroke-miterlimit="8" fill="#6C89B3" fill-rule="evenodd"/><path d="M2773.36 1212.5 2683.5 1260.38 2806.6 1278.5 2896.5 1230.62Z" stroke="#EBF0F6" stroke-width="3.4375" stroke-miterlimit="8" fill="#CDD8E9" fill-rule="evenodd"/><path d="M2964.5 1440.5 2841.5 1422.15 2841.5 1289.5 2964.5 1307.85Z" stroke="#EBF0F6" stroke-width="3.4375" stroke-miterlimit="8" fill="#BECEE4" fill-rule="evenodd"/><path d="M2964.5 1440.5 3054.5 1392.08 3054.5 1259.5 2964.5 1307.92Z" stroke="#EBF0F6" stroke-width="3.4375" stroke-miterlimit="8" fill="#6C89B3" fill-rule="evenodd"/><path d="M2931.36 1241.5 2841.5 1290.11 2964.6 1308.5 3054.5 1259.89Z" stroke="#EBF0F6" stroke-width="3.4375" stroke-miterlimit="8" fill="#CDD8E9" fill-rule="evenodd"/><path d="M2623.5 1468.5 2499.5 1450.27 2499.5 1318.5 2623.5 1336.73Z" stroke="#EBF0F6" stroke-width="3.4375" stroke-miterlimit="8" fill="#BECEE4" fill-rule="evenodd"/><path d="M2623.5 1468.5 2713.5 1420.35 2713.5 1288.5 2623.5 1336.65Z" stroke="#EBF0F6" stroke-width="3.4375" stroke-miterlimit="8" fill="#6C89B3" fill-rule="evenodd"/><path d="M2589.78 1269.5 2499.5 1318.11 2623.18 1336.5 2713.5 1287.89Z" stroke="#EBF0F6" stroke-width="3.4375" stroke-miterlimit="8" fill="#CDD8E9" fill-rule="evenodd"/><path d="M2780.5 1497.5 2657.5 1479.27 2657.5 1347.5 2780.5 1365.73Z" stroke="#EBF0F6" stroke-width="3.4375" stroke-miterlimit="8" fill="#BECEE4" fill-rule="evenodd"/><path d="M2780.5 1497.5 2870.5 1449.35 2870.5 1317.5 2780.5 1365.65Z" stroke="#EBF0F6" stroke-width="3.4375" stroke-miterlimit="8" fill="#6C89B3" fill-rule="evenodd"/><path d="M2747.36 1299.5 2657.5 1347.38 2780.6 1365.5 2870.5 1317.62Z" stroke="#EBF0F6" stroke-width="3.4375" stroke-miterlimit="8" fill="#CDD8E9" fill-rule="evenodd"/><path d="M2782.5 1330.5 2659.5 1312.27 2659.5 1180.5 2782.5 1198.73Z" stroke="#EBF0F6" stroke-width="3.4375" stroke-miterlimit="8" fill="#BECEE4" fill-rule="evenodd"/><path d="M2782.5 1330.5 2872.5 1282.35 2872.5 1150.5 2782.5 1198.65Z" stroke="#EBF0F6" stroke-width="3.4375" stroke-miterlimit="8" fill="#6C89B3" fill-rule="evenodd"/><path d="M2749.36 1132.5 2659.5 1181.11 2782.6 1199.5 2872.5 1150.89Z" stroke="#EBF0F6" stroke-width="3.4375" stroke-miterlimit="8" fill="#CDD8E9" fill-rule="evenodd"/></g></svg>