<svg width="2641" height="1174" xmlns="http://www.w3.org/2000/svg" xmlns:xlink="http://www.w3.org/1999/xlink" xml:space="preserve" overflow="hidden"><defs><clipPath id="clip0"><rect x="694" y="728" width="2641" height="1174"/></clipPath></defs><g clip-path="url(#clip0)" transform="translate(-694 -728)"><rect x="694" y="728" width="2641" height="1174" fill="#EDEFF3"/><path d="M607.093 0.0560132C417.186 4.88177 453.776 175.455 437.569 250.408 418.034 341.092 234.293 294.013 79.2026 343.402-103.397 401.521 75.803 502.922 157.858 559.864 295.997 655.687 215.461 728.913 306.077 827.551 400.456 930.326 659.088 993.576 828.397 920.284 971.039 858.554 946.148 754.434 1247.88 654.203 1490.07 573.755 1844.82 524.45 1927.17 339.206 1994.08 188.733 1848.59-21.7528 1496.87 67.6202 1382.32 96.7243 1273.5 155.122 1148.87 166.741 838.546 195.676 759.859-3.82121 607.093 0.0560132Z" fill="#FFFFFF" fill-rule="evenodd" fill-opacity="0.4" transform="matrix(1 0 0 -1 1089 1800)"/><rect x="1691" y="1197" width="465" height="249" fill="#E0E6F1"/><rect x="2209" y="1197" width="465" height="249" fill="#F2F2F2"/><rect x="1691" y="1502" width="465" height="249" fill="#F2F2F2"/><rect x="2209" y="1502" width="465" height="249" fill="#E0E6F1"/><path d="M1853.5 869.834C1853.5 856.947 1863.95 846.5 1876.83 846.5L1970.17 846.5C1983.05 846.5 1993.5 856.947 1993.5 869.834L1993.5 963.166C1993.5 976.053 1983.05 986.5 1970.17 986.5L1876.83 986.5C1863.95 986.5 1853.5 976.053 1853.5 963.166Z" stroke="#ABC0DD" stroke-width="22.9167" stroke-miterlimit="8" fill="#FFFFFF" fill-rule="evenodd"/><g><g><g><path d="M83.4095 15.3063 33.8094 62.1939 9.97814 37.7813 1.74375 45.6282 33.4219 78.1783 41.7532 70.4282 91.2564 23.4438Z" fill="#6C89B3" transform="matrix(1 0 0 1.01075 1877 869)"/></g></g></g><path d="M1335.5 1274.83C1335.5 1261.95 1345.95 1251.5 1358.83 1251.5L1452.17 1251.5C1465.05 1251.5 1475.5 1261.95 1475.5 1274.83L1475.5 1368.17C1475.5 1381.05 1465.05 1391.5 1452.17 1391.5L1358.83 1391.5C1345.95 1391.5 1335.5 1381.05 1335.5 1368.17Z" stroke="#ABC0DD" stroke-width="22.9167" stroke-miterlimit="8" fill="#FFFFFF" fill-rule="evenodd"/><g><g><g><path d="M83.4095 15.3063 33.8094 62.1939 9.97814 37.7813 1.74375 45.6282 33.4219 78.1783 41.7532 70.4282 91.2564 23.4438Z" fill="#6C89B3" transform="matrix(1.01075 0 0 1 1358 1275)"/></g></g></g><path d="M1335.5 1580.83C1335.5 1567.95 1345.95 1557.5 1358.83 1557.5L1452.17 1557.5C1465.05 1557.5 1475.5 1567.95 1475.5 1580.83L1475.5 1674.17C1475.5 1687.05 1465.05 1697.5 1452.17 1697.5L1358.83 1697.5C1345.95 1697.5 1335.5 1687.05 1335.5 1674.17Z" stroke="#ABC0DD" stroke-width="22.9167" stroke-miterlimit="8" fill="#FFFFFF" fill-rule="evenodd"/><g><g><g><path d="M80.7939 20.4407 72.5595 12.2063 46.5001 38.2657 20.4407 12.2063 12.2063 20.4407 38.2657 46.5001 12.2063 72.5595 20.4407 80.7939 46.5001 54.7345 72.5595 80.7939 80.7939 72.5595 54.7345 46.5001Z" fill="#6C89B3" transform="matrix(1.01075 0 0 1 1358 1580)"/></g></g></g><path d="M2372.5 869.834C2372.5 856.947 2382.95 846.5 2395.83 846.5L2489.17 846.5C2502.05 846.5 2512.5 856.947 2512.5 869.834L2512.5 963.166C2512.5 976.053 2502.05 986.5 2489.17 986.5L2395.83 986.5C2382.95 986.5 2372.5 976.053 2372.5 963.166Z" stroke="#ABC0DD" stroke-width="22.9167" stroke-miterlimit="8" fill="#FFFFFF" fill-rule="evenodd"/><g><g><g><path d="M80.7939 20.4407 72.5595 12.2063 46.5001 38.2657 20.4407 12.2063 12.2063 20.4407 38.2657 46.5001 12.2063 72.5595 20.4407 80.7939 46.5001 54.7345 72.5595 80.7939 80.7939 72.5595 54.7345 46.5001Z" fill="#6C89B3" transform="matrix(1 0 0 1.01075 2395 869)"/></g></g></g><path d="M1942.5 1274.83C1942.5 1261.95 1952.95 1251.5 1965.83 1251.5L2059.17 1251.5C2072.05 1251.5 2082.5 1261.95 2082.5 1274.83L2082.5 1368.17C2082.5 1381.05 2072.05 1391.5 2059.17 1391.5L1965.83 1391.5C1952.95 1391.5 1942.5 1381.05 1942.5 1368.17Z" stroke="#ABC0DD" stroke-width="22.9167" stroke-miterlimit="8" fill="#FFFFFF" fill-rule="evenodd"/><g><g><g><path d="M2049.41 1290.31 1999.81 1337.19 1975.98 1312.78 1967.74 1320.63 1999.42 1353.18 2007.75 1345.43 2057.26 1298.44Z" fill="#6C89B3"/></g></g></g><path d="M1764.5 1274.83C1764.5 1261.95 1774.95 1251.5 1787.83 1251.5L1881.17 1251.5C1894.05 1251.5 1904.5 1261.95 1904.5 1274.83L1904.5 1368.17C1904.5 1381.05 1894.05 1391.5 1881.17 1391.5L1787.83 1391.5C1774.95 1391.5 1764.5 1381.05 1764.5 1368.17Z" stroke="#ABC0DD" stroke-width="22.9167" stroke-miterlimit="8" fill="#FFFFFF" fill-rule="evenodd"/><g><g><g><path d="M1871.41 1290.31 1821.81 1337.19 1797.98 1312.78 1789.74 1320.63 1821.42 1353.18 1829.75 1345.43 1879.26 1298.44Z" fill="#6C89B3"/></g></g></g><path d="M2461.5 1274.83C2461.5 1261.95 2471.95 1251.5 2484.83 1251.5L2578.17 1251.5C2591.05 1251.5 2601.5 1261.95 2601.5 1274.83L2601.5 1368.17C2601.5 1381.05 2591.05 1391.5 2578.17 1391.5L2484.83 1391.5C2471.95 1391.5 2461.5 1381.05 2461.5 1368.17Z" stroke="#ABC0DD" stroke-width="22.9167" stroke-miterlimit="8" fill="#FFFFFF" fill-rule="evenodd"/><g><g><g><path d="M2564.79 1295.44 2556.56 1287.21 2530.5 1313.27 2504.44 1287.21 2496.21 1295.44 2522.27 1321.5 2496.21 1347.56 2504.44 1355.79 2530.5 1329.73 2556.56 1355.79 2564.79 1347.56 2538.73 1321.5Z" fill="#6C89B3"/></g></g></g><path d="M2283.5 1274.83C2283.5 1261.95 2293.95 1251.5 2306.83 1251.5L2400.17 1251.5C2413.05 1251.5 2423.5 1261.95 2423.5 1274.83L2423.5 1368.17C2423.5 1381.05 2413.05 1391.5 2400.17 1391.5L2306.83 1391.5C2293.95 1391.5 2283.5 1381.05 2283.5 1368.17Z" stroke="#ABC0DD" stroke-width="22.9167" stroke-miterlimit="8" fill="#FFFFFF" fill-rule="evenodd"/><g><g><g><path d="M2389.41 1290.31 2339.81 1337.19 2315.98 1312.78 2307.74 1320.63 2339.42 1353.18 2347.75 1345.43 2397.26 1298.44Z" fill="#6C89B3"/></g></g></g><path d="M1942.5 1580.83C1942.5 1567.95 1952.95 1557.5 1965.83 1557.5L2059.17 1557.5C2072.05 1557.5 2082.5 1567.95 2082.5 1580.83L2082.5 1674.17C2082.5 1687.05 2072.05 1697.5 2059.17 1697.5L1965.83 1697.5C1952.95 1697.5 1942.5 1687.05 1942.5 1674.17Z" stroke="#ABC0DD" stroke-width="22.9167" stroke-miterlimit="8" fill="#FFFFFF" fill-rule="evenodd"/><g><g><g><path d="M2049.41 1595.31 1999.81 1642.19 1975.98 1617.78 1967.74 1625.63 1999.42 1658.18 2007.75 1650.43 2057.26 1603.44Z" fill="#6C89B3"/></g></g></g><path d="M1764.5 1580.83C1764.5 1567.95 1774.95 1557.5 1787.83 1557.5L1881.17 1557.5C1894.05 1557.5 1904.5 1567.95 1904.5 1580.83L1904.5 1674.17C1904.5 1687.05 1894.05 1697.5 1881.17 1697.5L1787.83 1697.5C1774.95 1697.5 1764.5 1687.05 1764.5 1674.17Z" stroke="#ABC0DD" stroke-width="22.9167" stroke-miterlimit="8" fill="#FFFFFF" fill-rule="evenodd"/><g><g><g><path d="M1868.79 1600.44 1860.56 1592.21 1834.5 1618.27 1808.44 1592.21 1800.21 1600.44 1826.27 1626.5 1800.21 1652.56 1808.44 1660.79 1834.5 1634.73 1860.56 1660.79 1868.79 1652.56 1842.73 1626.5Z" fill="#6C89B3"/></g></g></g><path d="M2461.5 1580.83C2461.5 1567.95 2471.95 1557.5 2484.83 1557.5L2578.17 1557.5C2591.05 1557.5 2601.5 1567.95 2601.5 1580.83L2601.5 1674.17C2601.5 1687.05 2591.05 1697.5 2578.17 1697.5L2484.83 1697.5C2471.95 1697.5 2461.5 1687.05 2461.5 1674.17Z" stroke="#ABC0DD" stroke-width="22.9167" stroke-miterlimit="8" fill="#FFFFFF" fill-rule="evenodd"/><g><g><g><path d="M2564.79 1600.44 2556.56 1592.21 2530.5 1618.27 2504.44 1592.21 2496.21 1600.44 2522.27 1626.5 2496.21 1652.56 2504.44 1660.79 2530.5 1634.73 2556.56 1660.79 2564.79 1652.56 2538.73 1626.5Z" fill="#6C89B3"/></g></g></g><path d="M2283.5 1580.83C2283.5 1567.95 2293.95 1557.5 2306.83 1557.5L2400.17 1557.5C2413.05 1557.5 2423.5 1567.95 2423.5 1580.83L2423.5 1674.17C2423.5 1687.05 2413.05 1697.5 2400.17 1697.5L2306.83 1697.5C2293.95 1697.5 2283.5 1687.05 2283.5 1674.17Z" stroke="#ABC0DD" stroke-width="22.9167" stroke-miterlimit="8" fill="#FFFFFF" fill-rule="evenodd"/><g><g><g><path d="M2386.79 1600.44 2378.56 1592.21 2352.5 1618.27 2326.44 1592.21 2318.21 1600.44 2344.27 1626.5 2318.21 1652.56 2326.44 1660.79 2352.5 1634.73 2378.56 1660.79 2386.79 1652.56 2360.73 1626.5Z" fill="#6C89B3"/></g></g></g><path d="M1583.5 1092.5 1583.5 1784.35" stroke="#C8CCDA" stroke-width="22.9167" stroke-linecap="round" stroke-linejoin="round" stroke-miterlimit="10" fill="none" fill-rule="evenodd"/><path d="M0 0 1110.07 0.000360892" stroke="#C8CCDA" stroke-width="22.9167" stroke-linecap="round" stroke-linejoin="round" stroke-miterlimit="10" fill="none" fill-rule="evenodd" transform="matrix(-1 0 0 1 2694.57 1091.5)"/></g></svg>