<svg width="2641" height="1174" xmlns="http://www.w3.org/2000/svg" xmlns:xlink="http://www.w3.org/1999/xlink" xml:space="preserve" overflow="hidden"><defs><clipPath id="clip0"><rect x="694" y="728" width="2641" height="1174"/></clipPath></defs><g clip-path="url(#clip0)" transform="translate(-694 -728)"><rect x="694" y="728" width="2641" height="1174" fill="#EDEFF3"/><path d="M2951.08 1352.04C2928.93 1291.52 2874.75 1257.55 2797.63 1239.41 2628.88 1199.75 2558.25 1196.57 2553.85 1020.94 2545.27 681.493 2105.24 771.376 2000.5 861.221 1923.19 927.526 1823.44 1062.85 1586.8 1062.42 1152.63 1061.63 1219 1523.34 1491.22 1732.79 1714.02 1904.23 2013.01 1759.49 2050.5 1747.99 2139.53 1720.68 2232.79 1718.63 2327.55 1722.83 2888.89 1747.83 3020.43 1541.7 2951.08 1352.04Z" fill="#FFFFFF" fill-rule="evenodd" fill-opacity="0.4"/><path d="M2634.56 964.095C2590.21 966.199 2604.17 1015.74 2631.52 1034.47 2675.55 1064.56 2712.4 1061.88 2717.42 1034.08 2723.22 1002.07 2684.9 961.78 2634.56 964.095Z" fill="#FFFFFF" fill-rule="evenodd" fill-opacity="0.4"/><path d="M2640.36 824.06C2611.84 825.384 2620.83 856.614 2638.42 868.426 2666.7 887.397 2690.41 885.708 2693.62 868.181 2697.38 848.009 2672.73 822.605 2640.36 824.06Z" fill="#FFFFFF" fill-rule="evenodd" fill-opacity="0.4"/><path d="M1668.43 977.14C1663.77 1003.53 1698.39 1002 1714.48 988.443 1740.35 966.609 1743.6 944.6 1725.93 937.864 1705.6 930.109 1673.77 947.2 1668.43 977.14Z" fill="#FFFFFF" fill-rule="evenodd" fill-opacity="0.4"/><path d="M1550.5 1618C1550.5 1606.68 1559.68 1597.5 1571 1597.5L1653 1597.5C1664.32 1597.5 1673.5 1606.68 1673.5 1618L1673.5 1700C1673.5 1711.32 1664.32 1720.5 1653 1720.5L1571 1720.5C1559.68 1720.5 1550.5 1711.32 1550.5 1700Z" stroke="#ABC0DD" stroke-width="22.9167" stroke-miterlimit="8" fill="#FFFFFF" fill-rule="evenodd"/><g><g><g><path d="M72.1061 18.2427 64.7572 10.8937 41.4999 34.151 18.2427 10.8937 10.8937 18.2427 34.151 41.4999 10.8937 64.7572 18.2427 72.1061 41.4999 48.8489 64.7572 72.1061 72.1061 64.7572 48.8489 41.4999Z" fill="#6C89B3" transform="matrix(1 0 0 1 1570 1617)"/></g></g></g><rect x="1365" y="1098" width="163" height="143" fill="#E0E6F1"/><rect x="1195" y="1248" width="163" height="143" fill="#EBF0F6"/><rect x="1195" y="1392" width="163" height="142" fill="#EBF0F6"/><rect x="1035" y="1392" width="163" height="142" fill="#E0E6F1"/><rect x="1031" y="1249" width="163" height="143" fill="#E0E6F1"/><rect x="1202" y="1094" width="163" height="143" fill="#EBF0F6"/><rect x="1035" y="1102" width="156" height="136" fill="#FFFFFF" fill-opacity="0"/><rect x="1367" y="1253" width="156" height="136" fill="#FFFFFF" fill-opacity="0"/><rect x="1367" y="1396" width="156" height="136" fill="#FFFFFF" fill-opacity="0"/><rect x="1365" y="1247" width="163" height="143" fill="#E0E6F1"/><rect x="1365" y="1394" width="163" height="143" fill="#E0E6F1"/><rect x="1031" y="1096" width="163" height="143" fill="#E0E6F1"/><path d="M1022 1546 1536 1546 1536 1083 1022 1083ZM1035.53 1527.84 1035.53 1400.75 1191.08 1400.75 1191.08 1527.84ZM1353.39 1255.49 1353.39 1382.59 1204.61 1382.59 1204.61 1255.49ZM1204.61 1237.33 1204.61 1101.16 1353.39 1101.16 1353.39 1237.33ZM1366.92 1255.49 1522.47 1255.49 1522.47 1382.59 1366.92 1382.59ZM1191.08 1382.59 1035.53 1382.59 1035.53 1255.49 1191.08 1255.49ZM1204.61 1527.84 1204.61 1400.75 1353.39 1400.75 1353.39 1527.84ZM1366.92 1527.84 1366.92 1400.75 1522.47 1400.75 1522.47 1527.84ZM1522.47 1237.33 1366.92 1237.33 1366.92 1101.16 1522.47 1101.16ZM1191.08 1101.16 1191.08 1237.33 1035.53 1237.33 1035.53 1101.16Z" fill="#C8CCDA" fill-rule="evenodd"/><rect x="1696" y="1098" width="163" height="143" fill="#E0E6F1"/><rect x="1527" y="1248" width="163" height="143" fill="#EBF0F6"/><rect x="1527" y="1392" width="163" height="142" fill="#EBF0F6"/><rect x="1367" y="1392" width="163" height="142" fill="#E0E6F1"/><rect x="1362" y="1249" width="163" height="143" fill="#E0E6F1"/><rect x="1533" y="1094" width="163" height="143" fill="#EBF0F6"/><rect x="1367" y="1102" width="156" height="136" fill="#FFFFFF" fill-opacity="0"/><rect x="1698" y="1253" width="157" height="136" fill="#FFFFFF" fill-opacity="0"/><rect x="1698" y="1396" width="157" height="136" fill="#FFFFFF" fill-opacity="0"/><rect x="1696" y="1247" width="163" height="143" fill="#E0E6F1"/><rect x="1696" y="1394" width="163" height="143" fill="#E0E6F1"/><rect x="1362" y="1096" width="163" height="143" fill="#E0E6F1"/><path d="M1354 1546 1868 1546 1868 1083 1354 1083ZM1367.53 1527.84 1367.53 1400.75 1523.08 1400.75 1523.08 1527.84ZM1685.39 1255.49 1685.39 1382.59 1536.61 1382.59 1536.61 1255.49ZM1536.61 1237.33 1536.61 1101.16 1685.39 1101.16 1685.39 1237.33ZM1698.92 1255.49 1854.47 1255.49 1854.47 1382.59 1698.92 1382.59ZM1523.08 1382.59 1367.53 1382.59 1367.53 1255.49 1523.08 1255.49ZM1536.61 1527.84 1536.61 1400.75 1685.39 1400.75 1685.39 1527.84ZM1698.92 1527.84 1698.92 1400.75 1854.47 1400.75 1854.47 1527.84ZM1854.47 1237.33 1698.92 1237.33 1698.92 1101.16 1854.47 1101.16ZM1523.08 1101.16 1523.08 1237.33 1367.53 1237.33 1367.53 1101.16Z" fill="#C8CCDA" fill-rule="evenodd"/><g><g><g><path d="M2438.69 1042.31 1922.31 1042.31 2150.12 1270.13 2150.12 1497.94 2150.12 1558.69 2210.88 1497.94 2210.88 1270.13Z" fill="#C8CCDA"/></g></g></g><rect x="3021" y="1098" width="163" height="143" fill="#E0E6F1"/><rect x="2852" y="1248" width="163" height="143" fill="#E0E6F1"/><rect x="2852" y="1392" width="163" height="142" fill="#E0E6F1"/><rect x="2692" y="1392" width="163" height="142" fill="#E0E6F1"/><rect x="2687" y="1249" width="163" height="143" fill="#E0E6F1"/><rect x="2858" y="1094" width="163" height="143" fill="#E0E6F1"/><rect x="2691" y="1102" width="157" height="136" fill="#FFFFFF" fill-opacity="0"/><rect x="3023" y="1253" width="156" height="136" fill="#FFFFFF" fill-opacity="0"/><rect x="3023" y="1396" width="156" height="136" fill="#FFFFFF" fill-opacity="0"/><rect x="3021" y="1247" width="163" height="143" fill="#E0E6F1"/><rect x="3021" y="1394" width="163" height="143" fill="#E0E6F1"/><rect x="2687" y="1096" width="163" height="143" fill="#E0E6F1"/><path d="M2678 1546 3192 1546 3192 1083 2678 1083ZM2691.53 1527.84 2691.53 1400.75 2847.08 1400.75 2847.08 1527.84ZM3009.4 1255.49 3009.4 1382.59 2860.61 1382.59 2860.61 1255.49ZM2860.61 1237.33 2860.61 1101.16 3009.4 1101.16 3009.4 1237.33ZM3022.92 1255.49 3178.47 1255.49 3178.47 1382.59 3022.92 1382.59ZM2847.08 1382.59 2691.53 1382.59 2691.53 1255.49 2847.08 1255.49ZM2860.61 1527.84 2860.61 1400.75 3009.4 1400.75 3009.4 1527.84ZM3022.92 1527.84 3022.92 1400.75 3178.47 1400.75 3178.47 1527.84ZM3178.47 1237.33 3022.92 1237.33 3022.92 1101.16 3178.47 1101.16ZM2847.08 1101.16 2847.08 1237.33 2691.53 1237.33 2691.53 1101.16Z" fill="#C8CCDA" fill-rule="evenodd"/><path d="M1046.5 920.167C1046.5 908.753 1055.75 899.5 1067.17 899.5L1149.83 899.5C1161.25 899.5 1170.5 908.753 1170.5 920.167L1170.5 1002.83C1170.5 1014.25 1161.25 1023.5 1149.83 1023.5L1067.17 1023.5C1055.75 1023.5 1046.5 1014.25 1046.5 1002.83Z" stroke="#ABC0DD" stroke-width="22.9167" stroke-miterlimit="8" fill="#FFFFFF" fill-rule="evenodd"/><g><g><g><path d="M1140.54 933.496 1096.81 974.837 1075.8 953.312 1068.54 960.231 1096.47 988.931 1103.81 982.098 1147.46 940.671Z" fill="#6C89B3"/></g></g></g><path d="M1382.5 920C1382.5 908.678 1391.68 899.5 1403 899.5L1485 899.5C1496.32 899.5 1505.5 908.678 1505.5 920L1505.5 1003C1505.5 1014.32 1496.32 1023.5 1485 1023.5L1403 1023.5C1391.68 1023.5 1382.5 1014.32 1382.5 1003Z" stroke="#ABC0DD" stroke-width="22.9167" stroke-miterlimit="8" fill="#FFFFFF" fill-rule="evenodd"/><g><g><g><path d="M73.5439 13.4959 29.8105 54.8376 8.79793 33.3126 1.5375 40.2313 29.4688 68.9314 36.8147 62.098 80.4627 20.6709Z" fill="#6C89B3" transform="matrix(1.01219 0 0 1 1402 920)"/></g></g></g><path d="M1717.5 920.167C1717.5 908.753 1726.75 899.5 1738.17 899.5L1820.83 899.5C1832.25 899.5 1841.5 908.753 1841.5 920.167L1841.5 1002.83C1841.5 1014.25 1832.25 1023.5 1820.83 1023.5L1738.17 1023.5C1726.75 1023.5 1717.5 1014.25 1717.5 1002.83Z" stroke="#ABC0DD" stroke-width="22.9167" stroke-miterlimit="8" fill="#FFFFFF" fill-rule="evenodd"/><g><g><g><path d="M1811.54 933.496 1767.81 974.837 1746.8 953.312 1739.54 960.231 1767.47 988.931 1774.81 982.098 1818.46 940.671Z" fill="#6C89B3"/></g></g></g><path d="M1214.5 1618C1214.5 1606.68 1223.68 1597.5 1235 1597.5L1318 1597.5C1329.32 1597.5 1338.5 1606.68 1338.5 1618L1338.5 1700C1338.5 1711.32 1329.32 1720.5 1318 1720.5L1235 1720.5C1223.68 1720.5 1214.5 1711.32 1214.5 1700Z" stroke="#ABC0DD" stroke-width="22.9167" stroke-miterlimit="8" fill="#FFFFFF" fill-rule="evenodd"/><g><g><g><path d="M71.2373 18.0229 63.9769 10.7625 40.9999 33.7395 18.0229 10.7625 10.7625 18.0229 33.7395 40.9999 10.7625 63.9769 18.0229 71.2373 40.9999 48.2603 63.9769 71.2373 71.2373 63.9769 48.2603 40.9999Z" fill="#6C89B3" transform="matrix(1 0 0 1.0122 1235 1617)"/></g></g></g><path d="M0 0 292.3 0.000360892" stroke="#C8CCDA" stroke-width="29.7917" stroke-linecap="round" stroke-linejoin="round" stroke-miterlimit="10" stroke-dasharray="0 59.5833" fill="none" fill-rule="evenodd" transform="matrix(-1 0 0 1 2577.3 1322)"/><path d="M0 0 295.442 61.9548" stroke="#C8CCDA" stroke-width="29.7917" stroke-linecap="round" stroke-linejoin="round" stroke-miterlimit="10" stroke-dasharray="0 59.5833" fill="none" fill-rule="evenodd" transform="matrix(-1 0 0 1 2580.44 1199)"/><path d="M2580.44 1444.95 2285 1383" stroke="#C8CCDA" stroke-width="29.7917" stroke-linecap="round" stroke-linejoin="round" stroke-miterlimit="10" stroke-dasharray="0 59.5833" fill="none" fill-rule="evenodd"/></g></svg>